# Blender v2.93.5 OBJ File: 'pinballV2-textured.blend'
# www.blender.org
o EntryGuide.009_Cube.119
v 4.000697 0.000000 16.116802
v 4.000697 1.000000 16.116802
v 1.975146 0.000000 17.105026
v 1.975146 1.000000 17.105026
v 3.423578 0.000000 14.906507
v 1.838915 0.000000 16.819334
v 3.088628 0.000000 15.974676
v 2.971709 0.000000 16.132324
v 2.839902 0.000000 16.277750
v 2.694475 0.000000 16.409557
v 2.006258 0.000000 16.777418
v 2.536829 0.000000 16.526476
v 2.368481 0.000000 16.627380
v 2.191055 0.000000 16.711296
v 3.387259 0.000000 15.253717
v 3.416058 0.000000 15.059570
v 3.273448 0.000000 15.628904
v 3.189531 0.000000 15.806331
v 3.339569 0.000000 15.444106
v 3.423578 1.000000 14.906507
v 1.838915 1.000000 16.819334
v 3.387259 1.000000 15.253717
v 3.416058 1.000000 15.059570
v 3.339569 1.000000 15.444106
v 3.189531 1.000000 15.806331
v 3.273448 1.000000 15.628904
v 2.839902 1.000000 16.277750
v 2.971709 1.000000 16.132324
v 2.536829 1.000000 16.526476
v 2.191055 1.000000 16.711296
v 2.368481 1.000000 16.627380
v 2.694475 1.000000 16.409557
v 3.088628 1.000000 15.974676
v 2.006258 1.000000 16.777418
vt 0.246575 0.750000
vt 0.234375 0.867188
vt 0.246575 0.867187
vt 0.625000 0.250000
vt 0.375000 0.500000
vt 0.375000 0.250000
vt 0.033141 0.867188
vt 0.046875 0.750000
vt 0.033141 0.750000
vt 0.125000 0.500000
vt 0.248914 0.555790
vt 0.228773 0.566954
vt 0.203125 0.750000
vt 0.187500 0.867188
vt 0.203125 0.867188
vt 0.234375 0.750000
vt 0.218750 0.867188
vt 0.171875 0.750000
vt 0.156250 0.867188
vt 0.171875 0.867188
vt 0.140625 0.750000
vt 0.125000 0.867188
vt 0.140625 0.867188
vt 0.187500 0.750000
vt 0.093750 0.750000
vt 0.078125 0.867188
vt 0.093750 0.867188
vt 0.125000 0.750000
vt 0.109375 0.867188
vt 0.156250 0.750000
vt 0.062500 0.750000
vt 0.046875 0.867188
vt 0.062500 0.867188
vt 0.109375 0.750000
vt 0.078125 0.750000
vt 0.218750 0.750000
vt 0.625000 0.500000
vt 0.375000 0.548465
vt 0.356243 0.542998
vt 0.334582 0.539689
vt 0.133061 0.684754
vt 0.125000 0.705314
vt 0.145214 0.659969
vt 0.291136 0.541908
vt 0.312810 0.539325
vt 0.159080 0.636969
vt 0.174524 0.615976
vt 0.269769 0.547414
vt 0.191398 0.597192
vt 0.209539 0.580799
vn -0.9988 0.0000 -0.0491
vn 0.4385 0.0000 0.8987
vn -0.2430 0.0000 -0.9700
vn 0.0000 -1.0000 0.0000
vn -0.9415 0.0000 -0.3369
vn -0.9892 0.0000 -0.1467
vn -0.8577 0.0000 -0.5141
vn -0.7409 0.0000 -0.6716
vn -0.9040 0.0000 -0.4276
vn -0.5141 0.0000 -0.8577
vn -0.6716 0.0000 -0.7409
vn -0.8032 0.0000 -0.5957
vn -0.3369 0.0000 -0.9415
vn -0.5957 0.0000 -0.8032
vn -0.4276 0.0000 -0.9040
vn -0.9700 0.0000 -0.2430
vn -0.0000 1.0000 0.0000
vn 0.9026 0.0000 -0.4304
vn -0.9026 0.0000 0.4304
vn -0.7410 0.0000 -0.6716
vn -0.6716 0.0000 -0.7410
s off
f 5/1/1 23/2/1 20/3/1
f 2/4/2 3/5/2 1/6/2
f 21/7/3 11/8/3 6/9/3
f 1/10/4 9/11/4 8/12/4
f 19/13/5 26/14/5 24/15/5
f 16/16/6 22/17/6 23/2/6
f 18/18/7 33/19/7 25/20/7
f 8/21/8 27/22/8 28/23/8
f 17/24/9 25/20/9 26/14/9
f 12/25/10 31/26/10 29/27/10
f 9/28/11 32/29/11 27/22/11
f 7/30/12 28/23/12 33/19/12
f 14/31/13 34/32/13 30/33/13
f 10/34/14 29/27/14 32/29/14
f 13/35/15 30/33/15 31/26/15
f 15/36/16 24/15/16 22/17/16
f 2/4/17 28/23/17 27/22/17
f 1/10/18 20/3/18 2/4/18
f 4/37/19 6/38/19 3/5/19
f 5/1/1 16/16/1 23/2/1
f 2/4/2 4/37/2 3/5/2
f 21/7/3 34/32/3 11/8/3
f 3/5/4 6/38/4 11/39/4
f 3/5/4 11/39/4 14/40/4
f 16/41/4 5/42/4 1/10/4
f 15/43/4 16/41/4 1/10/4
f 1/10/4 3/5/4 12/44/4
f 3/5/4 14/40/4 13/45/4
f 3/5/4 13/45/4 12/44/4
f 19/46/4 15/43/4 1/10/4
f 17/47/4 19/46/4 1/10/4
f 1/10/4 12/44/4 10/48/4
f 18/49/4 17/47/4 1/10/4
f 7/50/4 18/49/4 1/10/4
f 1/10/4 10/48/4 9/11/4
f 8/12/4 7/50/4 1/10/4
f 19/13/5 17/24/5 26/14/5
f 16/16/6 15/36/6 22/17/6
f 18/18/7 7/30/7 33/19/7
f 8/21/20 9/28/20 27/22/20
f 17/24/9 18/18/9 25/20/9
f 12/25/10 13/35/10 31/26/10
f 9/28/21 10/34/21 32/29/21
f 7/30/12 8/21/12 28/23/12
f 14/31/13 11/8/13 34/32/13
f 10/34/14 12/25/14 29/27/14
f 13/35/15 14/31/15 30/33/15
f 15/36/16 19/13/16 24/15/16
f 2/4/17 20/3/17 23/2/17
f 2/4/17 23/2/17 22/17/17
f 34/32/17 21/7/17 4/37/17
f 30/33/17 34/32/17 4/37/17
f 2/4/17 22/17/17 24/15/17
f 2/4/17 24/15/17 26/14/17
f 30/33/17 4/37/17 31/26/17
f 4/37/17 2/4/17 29/27/17
f 31/26/17 4/37/17 29/27/17
f 2/4/17 26/14/17 25/20/17
f 2/4/17 25/20/17 33/19/17
f 32/29/17 29/27/17 2/4/17
f 2/4/17 33/19/17 28/23/17
f 27/22/17 32/29/17 2/4/17
f 1/10/18 5/1/18 20/3/18
f 4/37/19 21/7/19 6/38/19
