# Blender v2.93.5 OBJ File: 'pinballV2-textured.blend'
# www.blender.org
o EntryGuide.013_Cube.128
v 6.499996 0.000000 -10.230445
v 6.499996 1.000000 -10.230447
v 6.496191 0.000000 -10.317601
v 6.496191 1.000000 -10.317601
v 6.484804 0.000000 -10.404095
v 6.484804 1.000000 -10.404095
v 6.465921 0.000000 -10.489264
v 6.465921 1.000000 -10.489264
v 6.439691 0.000000 -10.572466
v 6.439691 1.000000 -10.572466
v 6.406302 0.000000 -10.653065
v 6.406302 1.000000 -10.653065
v 6.366024 0.000000 -10.730447
v 6.366024 1.000000 -10.730447
v 6.319156 0.000000 -10.804022
v 6.319156 1.000000 -10.804022
v 6.266041 0.000000 -10.873233
v 6.266041 1.000000 -10.873233
v 6.207104 0.000000 -10.937552
v 6.207104 1.000000 -10.937552
v 6.142783 0.000000 -10.996490
v 6.142783 1.000000 -10.996490
v 6.073575 0.000000 -11.049597
v 6.073575 1.000000 -11.049597
v 6.000004 0.000000 -11.096470
v 6.000004 1.000000 -11.096470
v 5.922613 0.000000 -11.136752
v 5.922613 1.000000 -11.136752
v 5.842042 0.000000 -11.170130
v 5.842018 1.000000 -11.170090
v 5.372176 1.000021 -11.341134
v 5.372181 0.000021 -11.341182
v 6.499996 1.000000 -8.230444
v 6.500001 0.000000 -8.230447
v 6.498098 1.000000 -8.186869
v 6.498098 0.000000 -8.186869
v 6.492400 1.000000 -8.143623
v 6.492400 0.000000 -8.143623
v 6.482959 1.000000 -8.101037
v 6.482959 0.000000 -8.101040
v 6.469841 1.000000 -8.059437
v 6.469841 0.000000 -8.059437
v 6.453152 1.000000 -8.019136
v 6.453156 0.000000 -8.019138
v 6.433015 1.000000 -7.980446
v 6.433015 0.000000 -7.980447
v 6.409574 1.000000 -7.943657
v 6.409578 0.000000 -7.943659
v 6.383018 1.000000 -7.909052
v 6.383023 0.000000 -7.909054
v 6.353550 1.000000 -7.876893
v 6.353550 0.000000 -7.876894
v 6.321397 1.000000 -7.847423
v 6.321397 0.000000 -7.847425
v 6.286783 1.000000 -7.820868
v 6.286783 0.000000 -7.820871
v 6.249995 1.000000 -7.797432
v 6.249995 0.000000 -7.797435
v 6.211305 1.000000 -7.777292
v 6.211309 0.000000 -7.777294
v 6.171007 1.000000 -7.760599
v 6.171007 0.000000 -7.760602
v 6.129403 1.000000 -7.747484
v 6.129408 0.000000 -7.747486
v 6.086822 1.000000 -7.738042
v 6.086822 0.000000 -7.738044
v 6.043572 1.000000 -7.732349
v 6.043577 0.000000 -7.732351
v 5.999994 1.000000 -7.730446
v 6.000004 0.000000 -7.730448
v 5.956421 1.000000 -7.732348
v 5.956421 0.000000 -7.732351
v 5.913172 1.000000 -7.738042
v 5.913177 0.000000 -7.738044
v 5.870590 1.000000 -7.747483
v 5.870595 0.000000 -7.747484
v 5.828986 1.000000 -7.760601
v 5.828996 0.000000 -7.760601
v 5.330586 1.000021 -11.354250
v 5.330582 0.000021 -11.354300
v 5.288005 1.000021 -11.363691
v 5.287995 0.000021 -11.363739
v 5.244761 1.000021 -11.369387
v 5.244751 0.000021 -11.369434
v 5.201192 1.000021 -11.371289
v 5.201173 0.000021 -11.371337
v 5.157609 1.000021 -11.369390
v 5.157590 0.000021 -11.369436
v 5.114369 1.000021 -11.363699
v 5.114350 0.000021 -11.363741
v 5.071793 1.000021 -11.354260
v 5.071759 0.000021 -11.354300
v 5.030193 1.000021 -11.341144
v 5.030155 0.000021 -11.341183
v 4.989896 1.000021 -11.324454
v 4.989858 0.000021 -11.324492
v 4.951205 1.000021 -11.304317
v 4.951172 0.000021 -11.304348
v 4.914417 1.000021 -11.280885
v 4.914384 0.000021 -11.280912
v 4.879818 1.000021 -11.254333
v 4.879775 0.000021 -11.254358
v 4.847660 1.000021 -11.224871
v 4.847617 0.000021 -11.224889
v 4.818192 1.000021 -11.192715
v 4.818149 0.000021 -11.192730
v 4.791636 1.000021 -11.158113
v 4.791594 0.000021 -11.158124
v 4.768205 1.000021 -11.121328
v 4.768157 0.000021 -11.121336
v 4.748068 1.000021 -11.082640
v 4.748015 0.000021 -11.082647
v 4.731374 1.000021 -11.042347
v 4.731326 0.000021 -11.042346
v 4.718251 1.000021 -11.000750
v 4.718204 0.000021 -11.000747
v 4.708815 1.000021 -10.958168
v 4.708762 0.000021 -10.958161
v 4.703121 1.000021 -10.914926
v 4.703069 0.000021 -10.914915
v 4.701214 1.000021 -10.871349
v 4.701171 0.000021 -10.871335
v 5.359144 0.000000 -7.931611
v 5.359144 1.000000 -7.931608
v 5.278544 0.000000 -7.964995
v 5.278540 1.000000 -7.964994
v 5.201168 0.000000 -8.005277
v 5.201163 1.000000 -8.005277
v 5.127587 0.000000 -8.052150
v 5.127583 1.000000 -8.052151
v 5.058374 0.000000 -8.105258
v 5.058370 1.000000 -8.105259
v 4.994059 0.000000 -8.164195
v 4.994049 1.000000 -8.164197
v 4.935122 0.000000 -8.228514
v 4.935112 1.000000 -8.228516
v 4.882016 0.000000 -8.297724
v 4.882011 1.000000 -8.297726
v 4.835138 0.000000 -8.371302
v 4.835138 1.000000 -8.371303
v 4.794855 0.000000 -8.448683
v 4.794850 1.000000 -8.448686
v 4.761472 0.000000 -8.529281
v 4.761467 1.000000 -8.529284
v 4.735241 0.000000 -8.612481
v 4.735231 1.000000 -8.612486
v 4.716353 0.000000 -8.697652
v 4.716349 1.000000 -8.697656
v 4.704971 0.000000 -8.784143
v 4.704962 1.000000 -8.784149
v 4.701161 0.000000 -8.871300
v 4.701161 1.000000 -8.871305
vt 0.375000 0.250000
vt 0.625000 0.250000
vt 0.375000 0.250000
vt 0.375000 0.250000
vt 0.625000 0.250000
vt 0.375000 0.250000
vt 0.625000 0.250000
vt 0.375000 0.250000
vt 0.625000 0.250000
vt 0.375000 0.250000
vt 0.625000 0.250000
vt 0.375000 0.250000
vt 0.625000 0.250000
vt 0.375000 0.250000
vt 0.625000 0.250000
vt 0.375000 0.250000
vt 0.625000 0.250000
vt 0.375000 0.250000
vt 0.625000 0.250000
vt 0.375000 0.250000
vt 0.625000 0.250000
vt 0.375000 0.250000
vt 0.625000 0.250000
vt 0.375000 0.250000
vt 0.625000 0.250000
vt 0.375000 0.250000
vt 0.625000 0.250000
vt 0.375000 0.250000
vt 0.625000 0.250000
vt 0.375000 0.250000
vt 0.625000 0.250000
vt 0.625000 0.250000
vt 0.625000 0.250000
vt 0.375000 0.250000
vt 0.625000 0.250000
vt 0.375000 0.250000
vt 0.625000 0.250000
vt 0.625000 0.250000
vt 0.625000 0.250000
vt 0.375000 0.250000
vt 0.625000 0.250000
vt 0.375000 0.250000
vt 0.375000 0.250000
vt 0.375000 0.250000
vt 0.625000 0.250000
vt 0.625000 0.250000
vt 0.625000 0.250000
vt 0.375000 0.250000
vt 0.375000 0.250000
vt 0.375000 0.250000
vt 0.625000 0.250000
vt 0.625000 0.250000
vt 0.625000 0.250000
vt 0.375000 0.250000
vt 0.625000 0.250000
vt 0.375000 0.250000
vt 0.375000 0.250000
vt 0.375000 0.250000
vt 0.625000 0.250000
vt 0.375000 0.250000
vt 0.625000 0.250000
vt 0.375000 0.250000
vt 0.625000 0.250000
vt 0.375000 0.250000
vt 0.625000 0.250000
vt 0.375000 0.250000
vt 0.625000 0.250000
vt 0.375000 0.250000
vt 0.625000 0.250000
vt 0.375000 0.250000
vt 0.625000 0.250000
vt 0.625000 0.250000
vt 0.375000 0.250000
vt 0.375000 0.250000
vt 0.625000 0.250000
vt 0.375000 0.250000
vt 0.375000 0.250000
vt 0.625000 0.250000
vt 0.375000 0.250000
vt 0.625000 0.250000
vt 0.375000 0.250000
vt 0.625000 0.250000
vt 0.375000 0.250000
vt 0.625000 0.250000
vt 0.375000 0.250000
vt 0.625000 0.250000
vt 0.375000 0.250000
vt 0.625000 0.250000
vt 0.375000 0.250000
vt 0.625000 0.250000
vt 0.375000 0.250000
vt 0.625000 0.250000
vt 0.625000 0.250000
vt 0.375000 0.250000
vt 0.375000 0.250000
vt 0.625000 0.250000
vt 0.375000 0.250000
vt 0.625000 0.250000
vt 0.375000 0.250000
vt 0.625000 0.250000
vt 0.375000 0.250000
vt 0.625000 0.250000
vt 0.375000 0.250000
vt 0.625000 0.250000
vt 0.375000 0.250000
vt 0.625000 0.250000
vt 0.375000 0.250000
vt 0.625000 0.250000
vt 0.375000 0.250000
vt 0.625000 0.250000
vt 0.375000 0.250000
vt 0.625000 0.250000
vt 0.375000 0.250000
vt 0.625000 0.250000
vt 0.625000 0.250000
vt 0.375000 0.250000
vt 0.375000 0.250000
vt 0.625000 0.250000
vt 0.375000 0.250000
vt 0.625000 0.250000
vt 0.625000 0.250000
vt 0.375000 0.250000
vt 0.625000 0.250000
vt 0.375000 0.250000
vt 0.625000 0.250000
vt 0.375000 0.250000
vt 0.625000 0.250000
vt 0.375000 0.250000
vt 0.375000 0.250000
vt 0.625000 0.250000
vt 0.625000 0.250000
vt 0.375000 0.250000
vt 0.375000 0.250000
vt 0.625000 0.250000
vt 0.625000 0.250000
vt 0.375000 0.250000
vt 0.625000 0.250000
vt 0.375000 0.250000
vt 0.375000 0.250000
vt 0.625000 0.250000
vt 0.625000 0.250000
vt 0.375000 0.250000
vt 0.625000 0.250000
vt 0.375000 0.250000
vt 0.375000 0.250000
vt 0.625000 0.250000
vt 0.625000 0.250000
vt 0.375000 0.250000
vt 0.625000 0.250000
vt 0.375000 0.250000
vt 0.125000 0.500000
vt 0.625000 0.250000
vt 0.875000 0.500000
vt 0.375000 0.250000
vt 0.125000 0.500000
vn 0.9990 0.0000 -0.0436
vn 0.9914 0.0000 -0.1305
vn 0.9763 0.0000 -0.2164
vn 0.9537 0.0000 -0.3007
vn 0.8870 0.0000 -0.4617
vn 0.9239 0.0000 -0.3827
vn 0.8434 0.0000 -0.5373
vn 0.7933 0.0000 -0.6088
vn 0.7373 0.0000 -0.6756
vn 0.6756 0.0000 -0.7373
vn 0.6088 0.0000 -0.7933
vn 0.5373 0.0000 -0.8434
vn 0.3827 0.0000 -0.9239
vn 0.4617 0.0000 -0.8870
vn 0.3421 0.0000 -0.9397
vn 0.3007 0.0000 -0.9537
vn 1.0000 0.0000 -0.0000
vn 0.9990 0.0000 0.0436
vn 0.9914 0.0000 0.1306
vn 0.9763 0.0000 0.2164
vn 0.9537 -0.0000 0.3007
vn 0.9239 0.0000 0.3825
vn 0.8871 0.0000 0.4617
vn 0.8433 -0.0000 0.5374
vn 0.7933 0.0000 0.6088
vn 0.7373 0.0000 0.6756
vn 0.6087 -0.0000 0.7934
vn 0.6757 -0.0000 0.7372
vn 0.5373 -0.0000 0.8434
vn 0.4618 -0.0000 0.8870
vn 0.3827 0.0000 0.9239
vn 0.3007 -0.0000 0.9537
vn 0.2165 -0.0000 0.9763
vn 0.1305 -0.0000 0.9914
vn 0.0436 -0.0000 0.9990
vn -0.0436 -0.0000 0.9990
vn -0.1305 -0.0000 0.9914
vn -0.3007 -0.0000 0.9537
vn -0.2164 -0.0000 0.9763
vn 0.2165 0.0000 -0.9763
vn 0.1306 0.0000 -0.9914
vn 0.0436 0.0000 -0.9990
vn -0.0435 0.0000 -0.9991
vn -0.1305 0.0000 -0.9914
vn -0.2164 0.0000 -0.9763
vn -0.3826 0.0001 -0.9239
vn -0.3008 0.0000 -0.9537
vn -0.4617 0.0001 -0.8870
vn -0.5373 0.0000 -0.8434
vn -0.6088 0.0000 -0.7933
vn -0.6755 0.0000 -0.7373
vn -0.7373 0.0000 -0.6756
vn -0.7933 0.0000 -0.6088
vn -0.8434 0.0000 -0.5373
vn -0.8870 0.0000 -0.4617
vn -0.9238 0.0001 -0.3828
vn -0.9763 0.0000 -0.2164
vn -0.9537 0.0000 -0.3008
vn -0.9914 0.0001 -0.1305
vn -0.9990 0.0001 -0.0437
vn -0.3420 -0.0000 0.9397
vn -0.3827 -0.0000 0.9239
vn -0.4618 -0.0000 0.8870
vn -0.6088 -0.0000 0.7934
vn -0.5373 -0.0000 0.8434
vn -0.7373 -0.0000 0.6756
vn -0.6756 -0.0000 0.7373
vn -0.7934 -0.0000 0.6088
vn -0.8870 0.0000 0.4618
vn -0.8434 -0.0000 0.5373
vn -0.9239 -0.0000 0.3827
vn -0.9763 -0.0000 0.2165
vn -0.9537 -0.0000 0.3007
vn 0.0000 -1.0000 0.0000
vn -0.9915 -0.0000 0.1305
vn -0.9990 -0.0000 0.0437
vn 0.0000 1.0000 -0.0000
vn -1.0000 0.0000 -0.0000
vn 0.9763 0.0000 -0.2165
vn 0.3822 0.0000 -0.9241
vn 0.3008 0.0000 -0.9537
vn 0.9991 0.0000 0.0435
vn 0.9763 0.0000 0.2165
vn 0.9239 0.0000 0.3826
vn 0.8870 -0.0000 0.4618
vn 0.8434 0.0000 0.5373
vn 0.7372 -0.0000 0.6756
vn 0.4617 0.0000 0.8870
vn 0.3006 -0.0000 0.9537
vn 0.2164 0.0000 -0.9763
vn -0.1306 0.0000 -0.9914
vn -0.3827 0.0000 -0.9239
vn -0.3006 0.0000 -0.9537
vn -0.4618 0.0000 -0.8870
vn -0.6087 0.0000 -0.7934
vn -0.6756 0.0000 -0.7373
vn -0.8870 0.0000 -0.4618
vn -0.9239 0.0000 -0.3826
vn -0.9763 0.0001 -0.2164
vn -0.9991 0.0000 -0.0435
vn -0.7934 -0.0000 0.6087
vn -0.9914 -0.0000 0.1305
vn -0.9991 0.0000 0.0436
s off
f 3/1/1 2/2/1 1/3/1
f 5/4/2 4/5/2 3/1/2
f 7/6/3 6/7/3 5/4/3
f 9/8/4 8/9/4 7/6/4
f 13/10/5 12/11/5 11/12/5
f 11/12/6 10/13/6 9/8/6
f 15/14/7 14/15/7 13/10/7
f 17/16/8 16/17/8 15/14/8
f 19/18/9 18/19/9 17/16/9
f 21/20/10 20/21/10 19/18/10
f 23/22/11 22/23/11 21/20/11
f 25/24/12 24/25/12 23/22/12
f 29/26/13 28/27/13 27/28/13
f 27/28/14 26/29/14 25/24/14
f 32/30/15 30/31/15 29/26/15
f 32/30/16 79/32/16 31/33/16
f 2/2/17 34/34/17 1/3/17
f 33/35/18 36/36/18 34/34/18
f 37/37/19 36/36/19 35/38/19
f 39/39/20 38/40/20 37/37/20
f 41/41/21 40/42/21 39/39/21
f 41/41/22 44/43/22 42/44/22
f 45/45/23 44/43/23 43/46/23
f 47/47/24 46/48/24 45/45/24
f 47/47/25 50/49/25 48/50/25
f 51/51/26 50/49/26 49/52/26
f 55/53/27 54/54/27 53/55/27
f 53/55/28 52/56/28 51/51/28
f 55/53/29 58/57/29 56/58/29
f 57/59/30 60/60/30 58/57/30
f 59/61/31 62/62/31 60/60/31
f 61/63/32 64/64/32 62/62/32
f 63/65/33 66/66/33 64/64/33
f 65/67/34 68/68/34 66/66/34
f 67/69/35 70/70/35 68/68/35
f 71/71/36 70/70/36 69/72/36
f 71/71/37 74/73/37 72/74/37
f 75/75/38 78/76/38 76/77/38
f 73/78/39 76/77/39 74/73/39
f 80/79/40 81/80/40 79/32/40
f 82/81/41 83/82/41 81/80/41
f 84/83/42 85/84/42 83/82/42
f 86/85/43 87/86/43 85/84/43
f 88/87/44 89/88/44 87/86/44
f 90/89/45 91/90/45 89/88/45
f 94/91/46 95/92/46 93/93/46
f 92/94/47 93/93/47 91/90/47
f 96/95/48 97/96/48 95/92/48
f 98/97/49 99/98/49 97/96/49
f 100/99/50 101/100/50 99/98/50
f 102/101/51 103/102/51 101/100/51
f 104/103/52 105/104/52 103/102/52
f 106/105/53 107/106/53 105/104/53
f 108/107/54 109/108/54 107/106/54
f 110/109/55 111/110/55 109/108/55
f 112/111/56 113/112/56 111/110/56
f 116/113/57 117/114/57 115/115/57
f 114/116/58 115/115/58 113/112/58
f 118/117/59 119/118/59 117/114/59
f 120/119/60 121/120/60 119/118/60
f 77/121/61 123/122/61 78/76/61
f 124/123/62 125/124/62 123/122/62
f 126/125/63 127/126/63 125/124/63
f 130/127/64 131/128/64 129/129/64
f 128/130/65 129/129/65 127/126/65
f 134/131/66 135/132/66 133/133/66
f 132/134/67 133/133/67 131/128/67
f 136/135/68 137/136/68 135/132/68
f 140/137/69 141/138/69 139/139/69
f 138/140/70 139/139/70 137/136/70
f 142/141/71 143/142/71 141/138/71
f 146/143/72 147/144/72 145/145/72
f 144/146/73 145/145/73 143/142/73
f 46/48/74 62/62/74 78/76/74
f 148/147/75 149/148/75 147/144/75
f 150/149/76 151/150/76 149/148/76
f 31/33/77 93/93/77 109/108/77
f 122/151/78 152/152/78 121/153/78
f 3/1/1 4/5/1 2/2/1
f 5/4/2 6/7/2 4/5/2
f 7/6/79 8/9/79 6/7/79
f 9/8/4 10/13/4 8/9/4
f 13/10/5 14/15/5 12/11/5
f 11/12/6 12/11/6 10/13/6
f 15/14/7 16/17/7 14/15/7
f 17/16/8 18/19/8 16/17/8
f 19/18/9 20/21/9 18/19/9
f 21/20/10 22/23/10 20/21/10
f 23/22/11 24/25/11 22/23/11
f 25/24/12 26/29/12 24/25/12
f 29/26/80 30/31/80 28/27/80
f 27/28/14 28/27/14 26/29/14
f 32/30/15 31/33/15 30/31/15
f 32/30/81 80/79/81 79/32/81
f 2/2/17 33/35/17 34/34/17
f 33/35/82 35/38/82 36/36/82
f 37/37/19 38/40/19 36/36/19
f 39/39/83 40/42/83 38/40/83
f 41/41/21 42/44/21 40/42/21
f 41/41/84 43/46/84 44/43/84
f 45/45/85 46/48/85 44/43/85
f 47/47/86 48/50/86 46/48/86
f 47/47/25 49/52/25 50/49/25
f 51/51/87 52/56/87 50/49/87
f 55/53/27 56/58/27 54/54/27
f 53/55/28 54/54/28 52/56/28
f 55/53/29 57/59/29 58/57/29
f 57/59/88 59/61/88 60/60/88
f 59/61/31 61/63/31 62/62/31
f 61/63/89 63/65/89 64/64/89
f 63/65/33 65/67/33 66/66/33
f 65/67/34 67/69/34 68/68/34
f 67/69/35 69/72/35 70/70/35
f 71/71/36 72/74/36 70/70/36
f 71/71/37 73/78/37 74/73/37
f 75/75/38 77/121/38 78/76/38
f 73/78/39 75/75/39 76/77/39
f 80/79/90 82/81/90 81/80/90
f 82/81/41 84/83/41 83/82/41
f 84/83/42 86/85/42 85/84/42
f 86/85/43 88/87/43 87/86/43
f 88/87/91 90/89/91 89/88/91
f 90/89/45 92/94/45 91/90/45
f 94/91/92 96/95/92 95/92/92
f 92/94/93 94/91/93 93/93/93
f 96/95/94 98/97/94 97/96/94
f 98/97/49 100/99/49 99/98/49
f 100/99/95 102/101/95 101/100/95
f 102/101/96 104/103/96 103/102/96
f 104/103/52 106/105/52 105/104/52
f 106/105/53 108/107/53 107/106/53
f 108/107/54 110/109/54 109/108/54
f 110/109/97 112/111/97 111/110/97
f 112/111/98 114/116/98 113/112/98
f 116/113/99 118/117/99 117/114/99
f 114/116/58 116/113/58 115/115/58
f 118/117/59 120/119/59 119/118/59
f 120/119/100 122/154/100 121/120/100
f 77/121/61 124/123/61 123/122/61
f 124/123/62 126/125/62 125/124/62
f 126/125/63 128/130/63 127/126/63
f 130/127/64 132/134/64 131/128/64
f 128/130/65 130/127/65 129/129/65
f 134/131/66 136/135/66 135/132/66
f 132/134/67 134/131/67 133/133/67
f 136/135/101 138/140/101 137/136/101
f 140/137/69 142/141/69 141/138/69
f 138/140/70 140/137/70 139/139/70
f 142/141/71 144/146/71 143/142/71
f 146/143/72 148/147/72 147/144/72
f 144/146/73 146/143/73 145/145/73
f 3/1/74 1/3/74 29/26/74
f 1/3/74 34/34/74 151/150/74
f 151/150/74 123/122/74 149/148/74
f 34/34/74 36/36/74 38/40/74
f 38/40/74 40/42/74 42/44/74
f 42/44/74 44/43/74 46/48/74
f 46/48/74 48/50/74 50/49/74
f 50/49/74 52/56/74 46/48/74
f 52/56/74 54/54/74 46/48/74
f 54/54/74 56/58/74 58/57/74
f 58/57/74 60/60/74 62/62/74
f 62/62/74 64/64/74 70/70/74
f 64/64/74 66/66/74 70/70/74
f 66/66/74 68/68/74 70/70/74
f 70/70/74 72/74/74 78/76/74
f 72/74/74 74/73/74 78/76/74
f 74/73/74 76/77/74 78/76/74
f 78/76/74 123/122/74 34/34/74
f 123/122/74 125/124/74 149/148/74
f 78/76/74 34/34/74 38/40/74
f 125/124/74 127/126/74 129/129/74
f 129/129/74 131/128/74 133/133/74
f 133/133/74 135/132/74 137/136/74
f 137/136/74 139/139/74 141/138/74
f 141/138/74 143/142/74 137/136/74
f 143/142/74 145/145/74 137/136/74
f 145/145/74 147/144/74 149/148/74
f 151/150/74 122/151/74 1/3/74
f 122/151/74 120/119/74 118/117/74
f 118/117/74 116/113/74 114/116/74
f 114/116/74 112/111/74 110/109/74
f 110/109/74 108/107/74 106/105/74
f 106/105/74 104/103/74 98/97/74
f 104/103/74 102/101/74 98/97/74
f 102/101/74 100/99/74 98/97/74
f 98/97/74 96/95/74 94/91/74
f 94/91/74 92/94/74 98/97/74
f 92/94/74 90/89/74 98/97/74
f 90/89/74 88/87/74 86/85/74
f 86/85/74 84/83/74 82/81/74
f 82/81/74 80/79/74 32/30/74
f 32/30/74 29/26/74 122/151/74
f 29/26/74 27/28/74 3/1/74
f 122/151/74 29/26/74 1/3/74
f 27/28/74 25/24/74 23/22/74
f 23/22/74 21/20/74 27/28/74
f 21/20/74 19/18/74 27/28/74
f 19/18/74 17/16/74 11/12/74
f 17/16/74 15/14/74 11/12/74
f 15/14/74 13/10/74 11/12/74
f 11/12/74 9/8/74 7/6/74
f 7/6/74 5/4/74 3/1/74
f 123/122/74 151/150/74 34/34/74
f 145/145/74 129/129/74 137/136/74
f 38/40/74 42/44/74 46/48/74
f 54/54/74 58/57/74 46/48/74
f 58/57/74 62/62/74 46/48/74
f 125/124/74 129/129/74 145/145/74
f 129/129/74 133/133/74 137/136/74
f 145/145/74 149/148/74 125/124/74
f 122/151/74 118/117/74 114/116/74
f 114/116/74 110/109/74 106/105/74
f 90/89/74 86/85/74 82/81/74
f 82/81/74 32/30/74 122/151/74
f 11/12/74 7/6/74 3/1/74
f 38/40/74 46/48/74 78/76/74
f 62/62/74 70/70/74 78/76/74
f 122/151/74 114/116/74 106/105/74
f 106/105/74 98/97/74 122/151/74
f 98/97/74 90/89/74 122/151/74
f 90/89/74 82/81/74 122/151/74
f 27/28/74 19/18/74 11/12/74
f 11/12/74 3/1/74 27/28/74
f 148/147/102 150/149/102 149/148/102
f 150/149/103 152/152/103 151/150/103
f 33/35/77 2/2/77 152/152/77
f 2/2/77 4/5/77 30/31/77
f 33/35/77 152/152/77 124/123/77
f 4/5/77 6/7/77 8/9/77
f 8/9/77 10/13/77 12/11/77
f 12/11/77 14/15/77 16/17/77
f 16/17/77 18/19/77 24/25/77
f 18/19/77 20/21/77 24/25/77
f 20/21/77 22/23/77 24/25/77
f 24/25/77 26/29/77 28/27/77
f 28/27/77 30/31/77 4/5/77
f 30/31/77 31/33/77 121/153/77
f 121/153/77 31/33/77 117/114/77
f 31/33/77 79/32/77 81/80/77
f 81/80/77 83/82/77 85/84/77
f 85/84/77 87/86/77 89/88/77
f 89/88/77 91/90/77 85/84/77
f 91/90/77 93/93/77 85/84/77
f 93/93/77 95/92/77 101/100/77
f 95/92/77 97/96/77 101/100/77
f 97/96/77 99/98/77 101/100/77
f 101/100/77 103/102/77 109/108/77
f 103/102/77 105/104/77 109/108/77
f 105/104/77 107/106/77 109/108/77
f 109/108/77 111/110/77 117/114/77
f 111/110/77 113/112/77 117/114/77
f 113/112/77 115/115/77 117/114/77
f 117/114/77 119/118/77 121/153/77
f 121/153/77 152/152/77 2/2/77
f 152/152/77 150/149/77 124/123/77
f 2/2/77 30/31/77 121/153/77
f 150/149/77 148/147/77 146/143/77
f 146/143/77 144/146/77 150/149/77
f 144/146/77 142/141/77 150/149/77
f 142/141/77 140/137/77 138/140/77
f 138/140/77 136/135/77 134/131/77
f 134/131/77 132/134/77 130/127/77
f 130/127/77 128/130/77 134/131/77
f 128/130/77 126/125/77 134/131/77
f 126/125/77 124/123/77 150/149/77
f 124/123/77 77/121/77 33/35/77
f 77/121/77 75/75/77 73/78/77
f 73/78/77 71/71/77 69/72/77
f 69/72/77 67/69/77 73/78/77
f 67/69/77 65/67/77 73/78/77
f 65/67/77 63/65/77 57/59/77
f 63/65/77 61/63/77 57/59/77
f 61/63/77 59/61/77 57/59/77
f 57/59/77 55/53/77 53/55/77
f 53/55/77 51/51/77 57/59/77
f 51/51/77 49/52/77 57/59/77
f 49/52/77 47/47/77 41/41/77
f 47/47/77 45/45/77 41/41/77
f 45/45/77 43/46/77 41/41/77
f 41/41/77 39/39/77 37/37/77
f 37/37/77 35/38/77 33/35/77
f 4/5/77 8/9/77 28/27/77
f 8/9/77 12/11/77 16/17/77
f 24/25/77 28/27/77 8/9/77
f 31/33/77 81/80/77 85/84/77
f 24/25/77 8/9/77 16/17/77
f 142/141/77 138/140/77 150/149/77
f 138/140/77 134/131/77 150/149/77
f 77/121/77 73/78/77 33/35/77
f 41/41/77 37/37/77 33/35/77
f 31/33/77 85/84/77 93/93/77
f 93/93/77 101/100/77 109/108/77
f 109/108/77 117/114/77 31/33/77
f 134/131/77 126/125/77 150/149/77
f 73/78/77 65/67/77 41/41/77
f 65/67/77 57/59/77 41/41/77
f 57/59/77 49/52/77 41/41/77
f 41/41/77 33/35/77 73/78/77
f 122/151/78 151/155/78 152/152/78
