# Blender v2.93.5 OBJ File: 'pinballV2-textured.blend'
# www.blender.org
o EntryGuide.010_Cube.122
v -6.000003 0.000000 -11.330533
v -6.000003 1.414477 -11.330533
v -5.500003 0.000000 -11.330533
v -5.500003 1.476347 -11.330533
v -5.996198 0.000000 -11.417688
v -5.996198 1.434767 -11.417688
v -5.498100 0.000000 -11.374110
v -5.498100 1.482243 -11.374110
v -5.984811 0.000000 -11.504181
v -5.984811 1.453054 -11.504181
v -5.492407 0.000000 -11.417356
v -5.492407 1.487416 -11.417356
v -5.965929 0.000000 -11.589352
v -5.965929 1.468920 -11.589352
v -5.482965 0.000000 -11.459942
v -5.482965 1.491792 -11.459942
v -5.939696 0.000000 -11.672553
v -5.939696 1.481948 -11.672553
v -5.469849 0.000000 -11.501542
v -5.469849 1.495301 -11.501542
v -5.906311 0.000000 -11.753150
v -5.906311 1.491731 -11.753150
v -5.453156 0.000000 -11.541842
v -5.453156 1.497878 -11.541842
v -5.866029 0.000000 -11.830532
v -5.866029 1.497874 -11.830532
v -5.433015 0.000000 -11.580533
v -5.433015 1.499462 -11.580533
v -5.819156 0.000000 -11.904108
v -5.819156 1.500000 -11.904108
v -5.409578 0.000000 -11.617321
v -5.409578 1.500000 -11.617321
v -5.766048 0.000000 -11.973320
v -5.766048 1.497874 -11.973320
v -5.383024 0.000000 -11.651926
v -5.383024 1.499462 -11.651926
v -5.707110 0.000000 -12.037639
v -5.707110 1.491731 -12.037639
v -5.353556 0.000000 -11.684085
v -5.353556 1.497878 -11.684085
v -5.642791 0.000000 -12.096577
v -5.642791 1.481948 -12.096577
v -5.321397 0.000000 -11.713553
v -5.321397 1.495302 -11.713553
v -5.573580 0.000000 -12.149685
v -5.573580 1.468919 -12.149685
v -5.286791 0.000000 -11.740108
v -5.286791 1.491793 -11.740108
v -5.500004 0.000000 -12.196558
v -5.500004 1.453054 -12.196558
v -5.250003 0.000000 -11.763544
v -5.250003 1.487417 -11.763544
v -5.422622 0.000000 -12.236839
v -5.422622 1.434767 -12.236839
v -5.211313 0.000000 -11.783686
v -5.211313 1.482243 -11.783686
v -5.342023 0.000000 -12.270226
v -5.342023 1.414484 -12.270176
v -5.171014 0.000000 -11.800377
v -5.171014 1.476347 -11.800377
v -2.992804 1.000021 -13.125259
v -2.992804 0.000021 -13.125309
v -2.821795 0.000021 -12.655460
v -2.821795 1.000021 -12.655460
v -6.000003 1.000000 -9.330533
v -6.000003 0.000000 -9.330533
v -5.500003 0.000000 -9.330533
v -5.500003 1.000000 -9.330533
vt 0.625000 0.500000
vt 0.875000 0.500000
vt 0.875000 0.500000
vt 0.375000 0.500000
vt 0.625000 0.500000
vt 0.375000 0.500000
vt 0.625000 0.500000
vt 0.875000 0.500000
vt 0.625000 0.250000
vt 0.375000 0.250000
vt 0.375000 0.250000
vt 0.375000 0.500000
vt 0.125000 0.500000
vt 0.625000 0.500000
vt 0.875000 0.500000
vt 0.625000 0.250000
vt 0.375000 0.250000
vt 0.375000 0.500000
vt 0.125000 0.500000
vt 0.625000 0.500000
vt 0.375000 0.500000
vt 0.625000 0.500000
vt 0.625000 0.250000
vt 0.375000 0.250000
vt 0.375000 0.500000
vt 0.125000 0.500000
vt 0.875000 0.500000
vt 0.875000 0.500000
vt 0.125000 0.500000
vt 0.625000 0.250000
vt 0.375000 0.250000
vt 0.625000 0.250000
vt 0.375000 0.250000
vt 0.375000 0.250000
vt 0.625000 0.250000
vt 0.375000 0.500000
vt 0.625000 0.500000
vt 0.125000 0.500000
vt 0.625000 0.500000
vt 0.375000 0.500000
vt 0.625000 0.500000
vt 0.375000 0.500000
vt 0.875000 0.500000
vt 0.625000 0.500000
vt 0.125000 0.500000
vt 0.875000 0.500000
vt 0.625000 0.250000
vt 0.375000 0.250000
vt 0.375000 0.500000
vt 0.125000 0.500000
vt 0.375000 0.500000
vt 0.125000 0.500000
vt 0.875000 0.500000
vt 0.625000 0.250000
vt 0.375000 0.250000
vt 0.875000 0.500000
vt 0.625000 0.500000
vt 0.875000 0.500000
vt 0.625000 0.500000
vt 0.625000 0.250000
vt 0.375000 0.250000
vt 0.375000 0.500000
vt 0.625000 0.500000
vt 0.625000 0.250000
vt 0.375000 0.250000
vt 0.375000 0.500000
vt 0.625000 0.500000
vt 0.125000 0.500000
vt 0.875000 0.500000
vt 0.625000 0.250000
vt 0.375000 0.250000
vt 0.875000 0.500000
vt 0.625000 0.500000
vt 0.875000 0.500000
vt 0.125000 0.500000
vt 0.375000 0.500000
vt 0.625000 0.250000
vt 0.375000 0.250000
vt 0.375000 0.250000
vt 0.625000 0.250000
vt 0.375000 0.250000
vt 0.625000 0.250000
vt 0.125000 0.500000
vt 0.375000 0.500000
vt 0.625000 0.250000
vt 0.375000 0.250000
vt 0.625000 0.500000
vt 0.125000 0.500000
vt 0.375000 0.500000
vt 0.875000 0.500000
vt 0.875000 0.500000
vt 0.375000 0.500000
vt 0.125000 0.500000
vt 0.625000 0.500000
vt 0.875000 0.500000
vt 0.125000 0.500000
vt 0.625000 0.250000
vt 0.125000 0.500000
vt 0.125000 0.500000
vt 0.625000 0.250000
vt 0.125000 0.500000
vt 0.375000 0.250000
vn -0.1198 0.9681 0.2201
vn 1.0000 0.0000 0.0000
vn -0.1097 0.9753 0.1918
vn -0.9990 0.0000 -0.0436
vn 0.9990 0.0000 0.0436
vn 0.0000 -1.0000 0.0000
vn -0.0970 0.9821 0.1614
vn -0.9914 0.0000 -0.1305
vn 0.9914 0.0000 0.1305
vn 0.9537 0.0000 0.3007
vn -0.9763 0.0000 -0.2164
vn 0.9763 0.0000 0.2165
vn -0.0627 0.9935 0.0946
vn -0.0814 0.9883 0.1291
vn -0.9537 0.0000 -0.3007
vn -0.8870 0.0000 -0.4617
vn -0.9239 0.0000 -0.3827
vn 0.9239 0.0000 0.3827
vn 0.8434 0.0000 0.5373
vn 0.8870 0.0000 0.4617
vn -0.0406 0.9975 0.0580
vn 0.7934 0.0000 0.6088
vn -0.0149 0.9997 0.0194
vn -0.8434 0.0000 -0.5373
vn 0.0132 0.9997 -0.0206
vn -0.7934 0.0000 -0.6088
vn 0.0675 0.9935 -0.0913
vn 0.0407 0.9975 -0.0580
vn -0.7373 0.0000 -0.6756
vn 0.7373 0.0000 0.6756
vn 0.6088 0.0000 0.7934
vn -0.6756 0.0000 -0.7373
vn 0.6756 0.0000 0.7373
vn 0.5373 0.0000 0.8434
vn 0.0935 0.9883 -0.1206
vn -0.6088 0.0000 -0.7934
vn 0.1427 0.9753 -0.1687
vn 0.1185 0.9821 -0.1464
vn -0.5373 0.0000 -0.8434
vn -0.3827 0.0000 -0.9239
vn -0.4617 0.0000 -0.8870
vn 0.4617 0.0000 0.8870
vn -0.3420 0.0000 -0.9397
vn 0.3827 0.0000 0.9239
vn 0.1659 0.9681 -0.1879
vn 0.9397 0.0000 -0.3420
vn 0.3420 0.0000 0.9397
vn 0.1537 0.9865 -0.0559
vn 0.0000 0.0000 1.0000
vn -0.1195 0.9658 0.2300
vn -1.0000 -0.0000 -0.0000
vn -0.1052 0.9861 0.1288
vn -0.0880 0.9904 0.1069
vn -0.0703 0.9938 0.0866
vn 0.9763 0.0000 0.2164
vn -0.0363 0.9982 0.0488
vn -0.0528 0.9963 0.0674
vn -0.8870 0.0000 -0.4618
vn -0.0210 0.9993 0.0300
vn 0.7933 0.0000 0.6088
vn -0.0071 0.9999 0.0101
vn 0.0071 0.9999 -0.0101
vn 0.0334 0.9982 -0.0508
vn 0.0210 0.9993 -0.0300
vn 0.6088 0.0000 0.7933
vn 0.0452 0.9963 -0.0727
vn -0.6088 0.0000 -0.7933
vn 0.0704 0.9904 -0.1192
vn 0.0573 0.9938 -0.0956
vn -0.3822 0.0000 -0.9241
vn 0.4618 0.0000 0.8870
vn 0.3826 0.0000 0.9239
vn 0.0851 0.9861 -0.1430
vn 0.1333 0.9752 -0.1769
vn 0.0000 0.9792 0.2029
s off
f 4/1/1 6/2/1 2/3/1
f 3/4/2 68/5/2 67/6/2
f 8/7/3 10/8/3 6/2/3
f 2/9/4 5/10/4 1/11/4
f 4/1/5 7/12/5 8/7/5
f 1/13/6 7/12/6 3/4/6
f 12/14/7 14/15/7 10/8/7
f 6/16/8 9/17/8 5/10/8
f 8/7/9 11/18/9 12/14/9
f 5/19/6 11/18/6 7/12/6
f 16/20/10 19/21/10 20/22/10
f 10/23/11 13/24/11 9/17/11
f 12/14/12 15/25/12 16/20/12
f 11/18/6 13/26/6 15/25/6
f 20/22/13 22/27/13 18/28/13
f 15/25/6 17/29/6 19/21/6
f 16/20/14 18/28/14 14/15/14
f 14/30/15 17/31/15 13/24/15
f 22/32/16 25/33/16 21/34/16
f 18/35/17 21/34/17 17/31/17
f 20/22/18 23/36/18 24/37/18
f 19/21/6 21/38/6 23/36/6
f 28/39/19 31/40/19 32/41/19
f 24/37/20 27/42/20 28/39/20
f 21/38/6 27/42/6 23/36/6
f 24/37/21 26/43/21 22/27/21
f 31/40/22 36/44/22 32/41/22
f 27/42/6 29/45/6 31/40/6
f 28/39/23 30/46/23 26/43/23
f 26/47/24 29/48/24 25/33/24
f 35/49/6 37/50/6 39/51/6
f 31/40/6 33/52/6 35/49/6
f 30/46/25 36/44/25 34/53/25
f 29/48/26 34/54/26 33/55/26
f 38/56/27 44/57/27 42/58/27
f 34/53/28 40/59/28 38/56/28
f 33/55/29 38/60/29 37/61/29
f 35/49/30 40/59/30 36/44/30
f 43/62/31 48/63/31 44/57/31
f 37/61/32 42/64/32 41/65/32
f 39/51/33 44/57/33 40/59/33
f 37/50/6 43/62/6 39/51/6
f 47/66/34 52/67/34 48/63/34
f 41/68/6 47/66/6 43/62/6
f 42/58/35 48/63/35 46/69/35
f 41/65/36 46/70/36 45/71/36
f 50/72/37 56/73/37 54/74/37
f 45/75/6 51/76/6 47/66/6
f 46/69/38 52/67/38 50/72/38
f 45/71/39 50/77/39 49/78/39
f 53/79/40 58/80/40 57/81/40
f 49/78/41 54/82/41 53/79/41
f 51/76/42 56/73/42 52/67/42
f 49/83/6 55/84/6 51/76/6
f 57/81/43 61/85/43 62/86/43
f 55/84/44 60/87/44 56/73/44
f 55/84/6 57/88/6 59/89/6
f 54/74/45 60/87/45 58/90/45
f 61/91/46 63/92/46 62/93/46
f 59/89/47 64/94/47 60/87/47
f 57/88/6 63/92/6 59/89/6
f 58/90/48 64/94/48 61/91/48
f 67/6/49 65/95/49 66/96/49
f 3/4/6 66/96/6 1/13/6
f 2/3/50 68/5/50 4/1/50
f 1/11/51 65/97/51 2/9/51
f 4/1/52 8/7/52 6/2/52
f 3/4/2 4/1/2 68/5/2
f 8/7/53 12/14/53 10/8/53
f 2/9/4 6/16/4 5/10/4
f 4/1/5 3/4/5 7/12/5
f 1/13/6 5/19/6 7/12/6
f 12/14/54 16/20/54 14/15/54
f 6/16/8 10/23/8 9/17/8
f 8/7/9 7/12/9 11/18/9
f 5/19/6 9/98/6 11/18/6
f 16/20/10 15/25/10 19/21/10
f 10/23/11 14/30/11 13/24/11
f 12/14/55 11/18/55 15/25/55
f 11/18/6 9/98/6 13/26/6
f 20/22/56 24/37/56 22/27/56
f 15/25/6 13/26/6 17/29/6
f 16/20/57 20/22/57 18/28/57
f 14/30/15 18/35/15 17/31/15
f 22/32/58 26/47/58 25/33/58
f 18/35/17 22/32/17 21/34/17
f 20/22/18 19/21/18 23/36/18
f 19/21/6 17/29/6 21/38/6
f 28/39/19 27/42/19 31/40/19
f 24/37/20 23/36/20 27/42/20
f 21/38/6 25/99/6 27/42/6
f 24/37/59 28/39/59 26/43/59
f 31/40/60 35/49/60 36/44/60
f 27/42/6 25/99/6 29/45/6
f 28/39/61 32/41/61 30/46/61
f 26/47/24 30/100/24 29/48/24
f 35/49/6 33/52/6 37/50/6
f 31/40/6 29/45/6 33/52/6
f 30/46/62 32/41/62 36/44/62
f 29/48/26 30/100/26 34/54/26
f 38/56/63 40/59/63 44/57/63
f 34/53/64 36/44/64 40/59/64
f 33/55/29 34/54/29 38/60/29
f 35/49/30 39/51/30 40/59/30
f 43/62/65 47/66/65 48/63/65
f 37/61/32 38/60/32 42/64/32
f 39/51/33 43/62/33 44/57/33
f 37/50/6 41/68/6 43/62/6
f 47/66/34 51/76/34 52/67/34
f 41/68/6 45/75/6 47/66/6
f 42/58/66 44/57/66 48/63/66
f 41/65/67 42/64/67 46/70/67
f 50/72/68 52/67/68 56/73/68
f 45/75/6 49/83/6 51/76/6
f 46/69/69 48/63/69 52/67/69
f 45/71/39 46/70/39 50/77/39
f 53/79/70 54/82/70 58/80/70
f 49/78/41 50/77/41 54/82/41
f 51/76/71 55/84/71 56/73/71
f 49/83/6 53/101/6 55/84/6
f 57/81/43 58/80/43 61/85/43
f 55/84/72 59/89/72 60/87/72
f 55/84/6 53/101/6 57/88/6
f 54/74/73 56/73/73 60/87/73
f 61/91/46 64/94/46 63/92/46
f 59/89/47 63/92/47 64/94/47
f 57/88/6 62/93/6 63/92/6
f 58/90/74 60/87/74 64/94/74
f 67/6/49 68/5/49 65/95/49
f 3/4/6 67/6/6 66/96/6
f 2/3/75 65/95/75 68/5/75
f 1/11/51 66/102/51 65/97/51
