# Blender v2.93.5 OBJ File: 'pinballV2-textured.blend'
# www.blender.org
o PaddleLeft.004_Cylinder.049
v 0.030715 0.000000 -0.400743
v 0.030715 1.000000 -0.400743
v 0.069954 0.000000 -0.399649
v 0.069954 1.000000 -0.399649
v 0.086838 0.000000 0.396320
v 0.086838 1.000000 0.396320
v 0.047681 0.000000 0.399077
v 0.047681 1.000000 0.399077
v 0.008442 0.000000 0.397983
v 0.008442 1.000000 0.397983
v -0.030501 0.000000 0.393048
v -0.030501 1.000000 0.393048
v -0.068772 0.000000 0.384320
v -0.068772 1.000000 0.384320
v -0.106004 0.000000 0.371882
v -0.106004 1.000000 0.371882
v -0.141837 0.000000 0.355855
v -0.141837 1.000000 0.355855
v -0.175927 0.000000 0.336393
v -0.175927 1.000000 0.336393
v -0.207945 0.000000 0.313684
v -0.207945 1.000000 0.313684
v -0.237583 0.000000 0.287944
v -0.237583 1.000000 0.287944
v -0.264555 0.000000 0.259425
v -0.264555 1.000000 0.259425
v -0.288602 0.000000 0.228399
v -0.288602 1.000000 0.228399
v -0.309493 0.000000 0.195165
v -0.309493 1.000000 0.195165
v -0.327025 0.000000 0.160044
v -0.327025 1.000000 0.160044
v -0.341030 0.000000 0.123372
v -0.341030 1.000000 0.123372
v -0.351373 0.000000 0.085505
v -0.351373 1.000000 0.085505
v -0.357955 0.000000 0.046807
v -0.357955 1.000000 0.046807
v -0.360712 0.000000 0.007650
v -0.360712 1.000000 0.007650
v -0.359618 0.000000 -0.031589
v -0.359618 1.000000 -0.031589
v -0.354683 0.000000 -0.070531
v -0.354683 1.000000 -0.070531
v -0.345955 0.000000 -0.108803
v -0.345955 1.000000 -0.108803
v -0.333517 0.000000 -0.146035
v -0.333517 1.000000 -0.146035
v -0.317490 0.000000 -0.181868
v -0.317490 1.000000 -0.181868
v -0.298028 0.000000 -0.215958
v -0.298028 1.000000 -0.215958
v -0.275318 0.000000 -0.247976
v -0.275318 1.000000 -0.247976
v -0.249580 0.000000 -0.277613
v -0.249580 1.000000 -0.277613
v -0.221060 0.000000 -0.304586
v -0.221060 1.000000 -0.304586
v -0.190034 0.000000 -0.328633
v -0.190034 1.000000 -0.328633
v -0.156799 0.000000 -0.349523
v -0.156799 1.000000 -0.349523
v -0.121679 0.000000 -0.367056
v -0.121679 1.000000 -0.367056
v -0.085008 0.000000 -0.381061
v -0.085008 1.000000 -0.381061
v -0.047141 0.000000 -0.391405
v -0.047141 1.000000 -0.391405
v -0.008442 0.000000 -0.397986
v -0.008442 1.000000 -0.397986
v 2.426363 0.000000 -0.318197
v 2.426363 1.000000 -0.318197
v 2.452522 0.000000 -0.317466
v 2.452522 1.000000 -0.317466
v 2.478484 0.000000 -0.314176
v 2.478484 1.000000 -0.314176
v 2.503999 0.000000 -0.308358
v 2.503999 1.000000 -0.308358
v 2.528820 0.000000 -0.300065
v 2.528820 1.000000 -0.300065
v 2.552709 0.000000 -0.289381
v 2.552709 1.000000 -0.289381
v 2.575435 0.000000 -0.276406
v 2.575435 1.000000 -0.276406
v 2.596780 0.000000 -0.261267
v 2.596780 1.000000 -0.261267
v 2.616539 0.000000 -0.244108
v 2.616539 1.000000 -0.244108
v 2.634521 0.000000 -0.225094
v 2.634521 1.000000 -0.225094
v 2.650552 0.000000 -0.204410
v 2.650552 1.000000 -0.204410
v 2.664479 0.000000 -0.182254
v 2.664479 1.000000 -0.182254
v 2.676167 0.000000 -0.158840
v 2.676167 1.000000 -0.158840
v 2.685504 0.000000 -0.134392
v 2.685504 1.000000 -0.134392
v 2.692399 0.000000 -0.109148
v 2.692399 1.000000 -0.109148
v 2.696787 0.000000 -0.083349
v 2.696787 1.000000 -0.083349
v 2.698625 0.000000 -0.057244
v 2.698625 1.000000 -0.057244
v 2.697895 0.000000 -0.031086
v 2.697895 1.000000 -0.031086
v 2.694605 0.000000 -0.005124
v 2.694605 1.000000 -0.005124
v 2.688787 0.000000 0.020391
v 2.688787 1.000000 0.020391
v 2.680495 0.000000 0.045212
v 2.680495 1.000000 0.045212
v 2.669810 0.000000 0.069100
v 2.669810 1.000000 0.069100
v 2.656836 0.000000 0.091828
v 2.656836 1.000000 0.091828
v 2.641696 0.000000 0.113173
v 2.641696 1.000000 0.113173
v 2.624537 0.000000 0.132932
v 2.624537 1.000000 0.132932
v 2.605523 0.000000 0.150913
v 2.605523 1.000000 0.150913
v 2.584839 0.000000 0.166945
v 2.584839 1.000000 0.166945
v 2.562683 0.000000 0.180871
v 2.562683 1.000000 0.180871
v 2.539269 0.000000 0.192560
v 2.539269 1.000000 0.192560
v 2.514822 0.000000 0.201896
v 2.514822 1.000000 0.201896
v 2.489577 0.000000 0.208791
v 2.489577 1.000000 0.208791
v 2.463778 0.000000 0.213179
v 2.463778 1.000000 0.213179
v 2.437674 0.000000 0.215018
v 2.437674 1.000000 0.215018
vt 1.000000 0.500000
vt 1.000000 1.000000
vt 0.984375 1.000000
vt 0.984375 0.500000
vt 0.515625 0.500000
vt 0.515625 1.000000
vt 0.500000 1.000000
vt 0.500000 0.500000
vt 0.484375 1.000000
vt 0.484375 0.500000
vt 0.468750 1.000000
vt 0.468750 0.500000
vt 0.453125 1.000000
vt 0.453125 0.500000
vt 0.437500 1.000000
vt 0.437500 0.500000
vt 0.421875 1.000000
vt 0.421875 0.500000
vt 0.406250 1.000000
vt 0.406250 0.500000
vt 0.390625 1.000000
vt 0.390625 0.500000
vt 0.375000 1.000000
vt 0.375000 0.500000
vt 0.359375 1.000000
vt 0.359375 0.500000
vt 0.343750 1.000000
vt 0.343750 0.500000
vt 0.328125 1.000000
vt 0.328125 0.500000
vt 0.312500 1.000000
vt 0.312500 0.500000
vt 0.296875 1.000000
vt 0.296875 0.500000
vt 0.281250 1.000000
vt 0.281250 0.500000
vt 0.265625 1.000000
vt 0.265625 0.500000
vt 0.250000 1.000000
vt 0.250000 0.500000
vt 0.234375 1.000000
vt 0.234375 0.500000
vt 0.218750 1.000000
vt 0.218750 0.500000
vt 0.203125 1.000000
vt 0.203125 0.500000
vt 0.187500 1.000000
vt 0.187500 0.500000
vt 0.171875 1.000000
vt 0.171875 0.500000
vt 0.156250 1.000000
vt 0.156250 0.500000
vt 0.140625 1.000000
vt 0.140625 0.500000
vt 0.125000 1.000000
vt 0.125000 0.500000
vt 0.109375 1.000000
vt 0.109375 0.500000
vt 0.093750 1.000000
vt 0.093750 0.500000
vt 0.078125 1.000000
vt 0.078125 0.500000
vt 0.062500 1.000000
vt 0.062500 0.500000
vt 0.046875 1.000000
vt 0.046875 0.500000
vt 0.031250 1.000000
vt 0.031250 0.500000
vt 0.273524 0.488844
vt 0.250000 0.490000
vt 0.226476 0.488844
vt 0.203178 0.485388
vt 0.180332 0.479666
vt 0.158156 0.471731
vt 0.136865 0.461661
vt 0.116663 0.449553
vt 0.097746 0.435523
vt 0.080294 0.419706
vt 0.064478 0.402254
vt 0.050447 0.383337
vt 0.038339 0.363135
vt 0.028269 0.341844
vt 0.020334 0.319668
vt 0.014612 0.296822
vt 0.011156 0.273524
vt 0.010000 0.250000
vt 0.011156 0.226476
vt 0.014612 0.203178
vt 0.020334 0.180332
vt 0.028269 0.158156
vt 0.038339 0.136865
vt 0.050447 0.116663
vt 0.064478 0.097746
vt 0.080294 0.080294
vt 0.097746 0.064477
vt 0.116663 0.050447
vt 0.136865 0.038339
vt 0.158156 0.028269
vt 0.180332 0.020334
vt 0.203178 0.014612
vt 0.226476 0.011156
vt 0.250000 0.010000
vt 0.273524 0.011156
vt 0.015625 1.000000
vt 0.015625 0.500000
vt 0.000000 1.000000
vt 0.000000 0.500000
vt 0.750000 0.490000
vt 0.773524 0.488844
vt 0.773524 0.011156
vt 0.750000 0.010000
vt 0.726476 0.011156
vt 0.703178 0.014612
vt 0.680332 0.020334
vt 0.658156 0.028269
vt 0.636865 0.038339
vt 0.616663 0.050447
vt 0.597746 0.064477
vt 0.580294 0.080294
vt 0.564478 0.097746
vt 0.550447 0.116663
vt 0.538339 0.136865
vt 0.528269 0.158156
vt 0.520334 0.180332
vt 0.514612 0.203178
vt 0.511156 0.226476
vt 0.510000 0.250000
vt 0.511156 0.273524
vt 0.514612 0.296822
vt 0.520334 0.319668
vt 0.528269 0.341844
vt 0.538339 0.363135
vt 0.550447 0.383337
vt 0.564478 0.402254
vt 0.580294 0.419706
vt 0.597746 0.435523
vt 0.616663 0.449553
vt 0.636865 0.461661
vt 0.658156 0.471731
vt 0.680332 0.479666
vt 0.703178 0.485388
vt 0.726476 0.488844
vt 1.000000 0.500000
vt 1.000000 1.000000
vt 0.984375 1.000000
vt 0.984375 0.500000
vt 0.968750 1.000000
vt 0.968750 0.500000
vt 0.953125 1.000000
vt 0.953125 0.500000
vt 0.937500 1.000000
vt 0.937500 0.500000
vt 0.921875 1.000000
vt 0.921875 0.500000
vt 0.906250 1.000000
vt 0.906250 0.500000
vt 0.890625 1.000000
vt 0.890625 0.500000
vt 0.875000 1.000000
vt 0.875000 0.500000
vt 0.859375 1.000000
vt 0.859375 0.500000
vt 0.843750 1.000000
vt 0.843750 0.500000
vt 0.828125 1.000000
vt 0.828125 0.500000
vt 0.812500 1.000000
vt 0.812500 0.500000
vt 0.796875 1.000000
vt 0.796875 0.500000
vt 0.781250 1.000000
vt 0.781250 0.500000
vt 0.765625 1.000000
vt 0.765625 0.500000
vt 0.750000 1.000000
vt 0.750000 0.500000
vt 0.734375 1.000000
vt 0.734375 0.500000
vt 0.718750 1.000000
vt 0.718750 0.500000
vt 0.703125 1.000000
vt 0.703125 0.500000
vt 0.687500 1.000000
vt 0.687500 0.500000
vt 0.671875 1.000000
vt 0.671875 0.500000
vt 0.656250 1.000000
vt 0.656250 0.500000
vt 0.640625 1.000000
vt 0.640625 0.500000
vt 0.625000 1.000000
vt 0.625000 0.500000
vt 0.609375 1.000000
vt 0.609375 0.500000
vt 0.593750 1.000000
vt 0.593750 0.500000
vt 0.578125 1.000000
vt 0.578125 0.500000
vt 0.562500 1.000000
vt 0.562500 0.500000
vt 0.546875 1.000000
vt 0.546875 0.500000
vt 0.531250 1.000000
vt 0.531250 0.500000
vt 0.515625 1.000000
vt 0.515625 0.500000
vt 0.500000 1.000000
vt 0.500000 0.500000
vt 0.273524 0.488844
vt 0.250000 0.490000
vt 0.250000 0.010000
vt 0.273524 0.011156
vt 0.296822 0.014612
vt 0.319668 0.020334
vt 0.341844 0.028269
vt 0.363135 0.038339
vt 0.383337 0.050447
vt 0.402254 0.064477
vt 0.419706 0.080294
vt 0.435522 0.097746
vt 0.449553 0.116663
vt 0.461661 0.136865
vt 0.471731 0.158156
vt 0.479666 0.180332
vt 0.485388 0.203178
vt 0.488844 0.226476
vt 0.490000 0.250000
vt 0.488844 0.273524
vt 0.485388 0.296822
vt 0.479666 0.319668
vt 0.471731 0.341844
vt 0.461661 0.363135
vt 0.449553 0.383337
vt 0.435522 0.402254
vt 0.419706 0.419706
vt 0.402254 0.435522
vt 0.383337 0.449553
vt 0.363135 0.461661
vt 0.341844 0.471731
vt 0.319668 0.479666
vt 0.296822 0.485388
vt 0.750000 0.010000
vt 0.750000 0.490000
vt 0.773524 0.488844
vt 0.796822 0.485388
vt 0.819668 0.479666
vt 0.841844 0.471731
vt 0.863135 0.461661
vt 0.883337 0.449553
vt 0.902254 0.435522
vt 0.919706 0.419706
vt 0.935522 0.402254
vt 0.949553 0.383337
vt 0.961661 0.363135
vt 0.971731 0.341844
vt 0.979666 0.319668
vt 0.985388 0.296822
vt 0.988844 0.273524
vt 0.990000 0.250000
vt 0.988844 0.226476
vt 0.985388 0.203178
vt 0.979666 0.180332
vt 0.971731 0.158156
vt 0.961661 0.136865
vt 0.949553 0.116663
vt 0.935522 0.097746
vt 0.919706 0.080294
vt 0.902254 0.064477
vt 0.883337 0.050447
vt 0.863135 0.038339
vt 0.841844 0.028269
vt 0.819668 0.020334
vt 0.796822 0.014612
vt 0.773524 0.011156
vt 0.000000 0.000000
vt 0.000000 0.000000
vt 0.000000 0.000000
vt 0.000000 0.000000
vn 0.0279 0.0000 -0.9996
vn 0.0702 0.0000 0.9975
vn -0.0279 0.0000 0.9996
vn -0.1257 0.0000 0.9921
vn -0.2224 0.0000 0.9750
vn -0.3168 0.0000 0.9485
vn -0.4083 0.0000 0.9128
vn -0.4958 0.0000 0.8684
vn -0.5785 0.0000 0.8157
vn -0.6557 0.0000 0.7550
vn -0.7265 0.0000 0.6871
vn -0.7904 0.0000 0.6126
vn -0.8466 0.0000 0.5322
vn -0.8947 0.0000 0.4466
vn -0.9342 0.0000 0.3568
vn -0.9647 0.0000 0.2635
vn -0.9858 0.0000 0.1677
vn -0.9975 0.0000 0.0702
vn -0.9996 0.0000 -0.0279
vn -0.9921 0.0000 -0.1257
vn -0.9750 0.0000 -0.2224
vn -0.9485 0.0000 -0.3168
vn -0.9129 0.0000 -0.4083
vn -0.8684 0.0000 -0.4958
vn -0.8157 0.0000 -0.5785
vn -0.7550 0.0000 -0.6557
vn -0.6871 0.0000 -0.7265
vn -0.6126 0.0000 -0.7904
vn -0.5322 0.0000 -0.8466
vn -0.4466 0.0000 -0.8947
vn -0.3568 0.0000 -0.9342
vn -0.2635 0.0000 -0.9647
vn 0.0000 1.0000 0.0000
vn -0.1677 0.0000 -0.9858
vn -0.0702 0.0000 -0.9975
vn 0.0000 -1.0000 0.0000
vn 0.1257 0.0000 -0.9921
vn 0.2223 0.0000 -0.9750
vn 0.3169 0.0000 -0.9485
vn 0.4083 0.0000 -0.9129
vn 0.4958 0.0000 -0.8684
vn 0.5785 0.0000 -0.8157
vn 0.6557 0.0000 -0.7550
vn 0.7265 0.0000 -0.6871
vn 0.7904 0.0000 -0.6126
vn 0.8466 0.0000 -0.5322
vn 0.8947 0.0000 -0.4466
vn 0.9342 0.0000 -0.3568
vn 0.9647 0.0000 -0.2635
vn 0.9858 0.0000 -0.1677
vn 0.9975 0.0000 -0.0702
vn 0.9996 0.0000 0.0279
vn 0.9921 0.0000 0.1257
vn 0.9750 0.0000 0.2223
vn 0.9485 0.0000 0.3168
vn 0.9128 0.0000 0.4083
vn 0.8685 0.0000 0.4958
vn 0.8157 0.0000 0.5785
vn 0.7550 0.0000 0.6557
vn 0.6871 0.0000 0.7266
vn 0.6126 0.0000 0.7904
vn 0.5322 0.0000 0.8466
vn 0.4466 0.0000 0.8947
vn 0.3568 0.0000 0.9342
vn 0.2635 0.0000 0.9647
vn 0.1677 0.0000 0.9858
vn 0.0703 0.0000 0.9975
vn -0.0345 0.0000 0.9994
vn 0.0769 0.0000 0.9970
s off
f 1/1/1 2/2/1 4/3/1 3/4/1
f 5/5/2 6/6/2 8/7/2 7/8/2
f 7/8/3 8/7/3 10/9/3 9/10/3
f 9/10/4 10/9/4 12/11/4 11/12/4
f 11/12/5 12/11/5 14/13/5 13/14/5
f 13/14/6 14/13/6 16/15/6 15/16/6
f 15/16/7 16/15/7 18/17/7 17/18/7
f 17/18/8 18/17/8 20/19/8 19/20/8
f 19/20/9 20/19/9 22/21/9 21/22/9
f 21/22/10 22/21/10 24/23/10 23/24/10
f 23/24/11 24/23/11 26/25/11 25/26/11
f 25/26/12 26/25/12 28/27/12 27/28/12
f 27/28/13 28/27/13 30/29/13 29/30/13
f 29/30/14 30/29/14 32/31/14 31/32/14
f 31/32/15 32/31/15 34/33/15 33/34/15
f 33/34/16 34/33/16 36/35/16 35/36/16
f 35/36/17 36/35/17 38/37/17 37/38/17
f 37/38/18 38/37/18 40/39/18 39/40/18
f 39/40/19 40/39/19 42/41/19 41/42/19
f 41/42/20 42/41/20 44/43/20 43/44/20
f 43/44/21 44/43/21 46/45/21 45/46/21
f 45/46/22 46/45/22 48/47/22 47/48/22
f 47/48/23 48/47/23 50/49/23 49/50/23
f 49/50/24 50/49/24 52/51/24 51/52/24
f 51/52/25 52/51/25 54/53/25 53/54/25
f 53/54/26 54/53/26 56/55/26 55/56/26
f 55/56/27 56/55/27 58/57/27 57/58/27
f 57/58/28 58/57/28 60/59/28 59/60/28
f 59/60/29 60/59/29 62/61/29 61/62/29
f 61/62/30 62/61/30 64/63/30 63/64/30
f 63/64/31 64/63/31 66/65/31 65/66/31
f 65/66/32 66/65/32 68/67/32 67/68/32
f 4/69/33 2/70/33 70/71/33 68/72/33 66/73/33 64/74/33 62/75/33 60/76/33 58/77/33 56/78/33 54/79/33 52/80/33 50/81/33 48/82/33 46/83/33 44/84/33 42/85/33 40/86/33 38/87/33 36/88/33 34/89/33 32/90/33 30/91/33 28/92/33 26/93/33 24/94/33 22/95/33 20/96/33 18/97/33 16/98/33 14/99/33 12/100/33 10/101/33 8/102/33 6/103/33
f 67/68/34 68/67/34 70/104/34 69/105/34
f 69/105/35 70/104/35 2/106/35 1/107/35
f 1/108/36 3/109/36 5/110/36 7/111/36 9/112/36 11/113/36 13/114/36 15/115/36 17/116/36 19/117/36 21/118/36 23/119/36 25/120/36 27/121/36 29/122/36 31/123/36 33/124/36 35/125/36 37/126/36 39/127/36 41/128/36 43/129/36 45/130/36 47/131/36 49/132/36 51/133/36 53/134/36 55/135/36 57/136/36 59/137/36 61/138/36 63/139/36 65/140/36 67/141/36 69/142/36
f 71/143/1 72/144/1 74/145/1 73/146/1
f 73/146/37 74/145/37 76/147/37 75/148/37
f 75/148/38 76/147/38 78/149/38 77/150/38
f 77/150/39 78/149/39 80/151/39 79/152/39
f 79/152/40 80/151/40 82/153/40 81/154/40
f 81/154/41 82/153/41 84/155/41 83/156/41
f 83/156/42 84/155/42 86/157/42 85/158/42
f 85/158/43 86/157/43 88/159/43 87/160/43
f 87/160/44 88/159/44 90/161/44 89/162/44
f 89/162/45 90/161/45 92/163/45 91/164/45
f 91/164/46 92/163/46 94/165/46 93/166/46
f 93/166/47 94/165/47 96/167/47 95/168/47
f 95/168/48 96/167/48 98/169/48 97/170/48
f 97/170/49 98/169/49 100/171/49 99/172/49
f 99/172/50 100/171/50 102/173/50 101/174/50
f 101/174/51 102/173/51 104/175/51 103/176/51
f 103/176/52 104/175/52 106/177/52 105/178/52
f 105/178/53 106/177/53 108/179/53 107/180/53
f 107/180/54 108/179/54 110/181/54 109/182/54
f 109/182/55 110/181/55 112/183/55 111/184/55
f 111/184/56 112/183/56 114/185/56 113/186/56
f 113/186/57 114/185/57 116/187/57 115/188/57
f 115/188/58 116/187/58 118/189/58 117/190/58
f 117/190/59 118/189/59 120/191/59 119/192/59
f 119/192/60 120/191/60 122/193/60 121/194/60
f 121/194/61 122/193/61 124/195/61 123/196/61
f 123/196/62 124/195/62 126/197/62 125/198/62
f 125/198/63 126/197/63 128/199/63 127/200/63
f 127/200/64 128/199/64 130/201/64 129/202/64
f 129/202/65 130/201/65 132/203/65 131/204/65
f 131/204/66 132/203/66 134/205/66 133/206/66
f 133/206/67 134/205/67 136/207/67 135/208/67
f 74/209/33 72/210/33 136/211/33 134/212/33 132/213/33 130/214/33 128/215/33 126/216/33 124/217/33 122/218/33 120/219/33 118/220/33 116/221/33 114/222/33 112/223/33 110/224/33 108/225/33 106/226/33 104/227/33 102/228/33 100/229/33 98/230/33 96/231/33 94/232/33 92/233/33 90/234/33 88/235/33 86/236/33 84/237/33 82/238/33 80/239/33 78/240/33 76/241/33
f 3/4/36 71/143/36 135/242/36 5/5/36
f 71/243/36 73/244/36 75/245/36 77/246/36 79/247/36 81/248/36 83/249/36 85/250/36 87/251/36 89/252/36 91/253/36 93/254/36 95/255/36 97/256/36 99/257/36 101/258/36 103/259/36 105/260/36 107/261/36 109/262/36 111/263/36 113/264/36 115/265/36 117/266/36 119/267/36 121/268/36 123/269/36 125/270/36 127/271/36 129/272/36 131/273/36 133/274/36 135/242/36
f 4/3/68 3/4/68 71/143/68 72/144/68
f 6/6/69 5/5/69 135/208/69 136/207/69
f 4/275/33 6/276/33 136/277/33 72/278/33
