# Blender v2.93.3 OBJ File: 'paddle.blend'
# www.blender.org
mtllib paddle.mtl
o LeftPaddle_Cylinder.005
v 1.630389 0.000000 -0.230221
v 1.674967 0.000000 -0.225890
v 1.717843 0.000000 -0.212949
v 1.757371 0.000000 -0.191889
v 1.792030 0.000000 -0.163524
v 1.820490 0.000000 -0.128942
v 1.841657 0.000000 -0.089471
v 1.854716 0.000000 -0.046631
v 1.859166 0.000000 -0.002065
v 1.854837 0.000000 0.042513
v 1.841894 0.000000 0.085387
v 1.820835 0.000000 0.124914
v 1.792470 0.000000 0.159574
v 1.757888 0.000000 0.188034
v 1.718418 0.000000 0.209201
v 1.675577 0.000000 0.222261
v 1.631011 0.000000 0.226711
v 0.005640 0.000000 -0.304163
v 0.006469 0.000000 0.305078
v -0.052967 0.000000 0.299306
v -0.110136 0.000000 0.282050
v -0.162840 0.000000 0.253971
v -0.209052 0.000000 0.216151
v -0.246999 0.000000 0.170041
v -0.275220 0.000000 0.117416
v -0.292633 0.000000 0.060294
v -0.298567 0.000000 0.000872
v -0.292795 0.000000 -0.058565
v -0.275538 0.000000 -0.115733
v -0.247459 0.000000 -0.168436
v -0.209638 0.000000 -0.214648
v -0.163529 0.000000 -0.252595
v -0.110902 0.000000 -0.280817
v -0.053781 0.000000 -0.298229
v 1.630389 0.487395 -0.230221
v 1.630556 0.609243 -0.107937
v 1.630402 0.534024 -0.220913
v 1.630438 0.573554 -0.194405
v 1.630492 0.599968 -0.154733
v 1.650517 0.609243 -0.105993
v 1.674967 0.487395 -0.225890
v 1.659873 0.599968 -0.151876
v 1.667805 0.573554 -0.190774
v 1.673106 0.534024 -0.216764
v 1.671142 0.609243 -0.099768
v 1.717843 0.487395 -0.212949
v 1.689014 0.599968 -0.143079
v 1.704165 0.573554 -0.179800
v 1.714288 0.534024 -0.204333
v 1.689487 0.609243 -0.089993
v 1.757371 0.487395 -0.191889
v 1.715465 0.599968 -0.128988
v 1.737489 0.573554 -0.162045
v 1.752204 0.534024 -0.184133
v 1.705571 0.609243 -0.076830
v 1.792030 0.487395 -0.163524
v 1.738658 0.599968 -0.110006
v 1.766707 0.573554 -0.138131
v 1.785449 0.534024 -0.156924
v 1.718779 0.609243 -0.060780
v 1.820490 0.487395 -0.128942
v 1.757702 0.599968 -0.086865
v 1.790700 0.573554 -0.108977
v 1.812747 0.534024 -0.123752
v 1.728602 0.609243 -0.042462
v 1.841657 0.487395 -0.089471
v 1.771866 0.599968 -0.060452
v 1.808543 0.573554 -0.075703
v 1.833051 0.534024 -0.085892
v 1.734663 0.609243 -0.022581
v 1.854716 0.487395 -0.046631
v 1.780605 0.599968 -0.031786
v 1.819553 0.573554 -0.039587
v 1.845577 0.534024 -0.044801
v 1.736728 0.609243 -0.001901
v 1.859166 0.487395 -0.002065
v 1.783584 0.599968 -0.001963
v 1.823305 0.573554 -0.002017
v 1.849846 0.534024 -0.002054
v 1.734719 0.609243 0.018791
v 1.854837 0.487395 0.042513
v 1.780686 0.599968 0.027869
v 1.819655 0.573554 0.035564
v 1.845693 0.534024 0.040707
v 1.728714 0.609243 0.038682
v 1.841894 0.487395 0.085387
v 1.772026 0.599968 0.056556
v 1.808744 0.573554 0.071707
v 1.833279 0.534024 0.081832
v 1.718939 0.609243 0.057031
v 1.820835 0.487395 0.124914
v 1.757933 0.599968 0.083009
v 1.790991 0.573554 0.105032
v 1.813080 0.534024 0.119747
v 1.705773 0.609243 0.073117
v 1.792470 0.487395 0.159574
v 1.738950 0.599968 0.106202
v 1.767077 0.573554 0.134252
v 1.785870 0.534024 0.152992
v 1.689726 0.609243 0.086325
v 1.757888 0.487395 0.188034
v 1.715811 0.599968 0.125247
v 1.737923 0.573554 0.158244
v 1.752699 0.534024 0.180292
v 1.671409 0.609243 0.096148
v 1.718418 0.487395 0.209201
v 1.689399 0.599968 0.139412
v 1.704650 0.573554 0.176090
v 1.714840 0.534024 0.200597
v 1.650802 0.609243 0.102429
v 1.675577 0.487395 0.222261
v 1.660283 0.599968 0.148285
v 1.668320 0.573554 0.187162
v 1.673691 0.534024 0.213138
v 1.630845 0.609243 0.104428
v 1.631011 0.487395 0.226711
v 1.630909 0.599968 0.151224
v 1.630963 0.573554 0.190896
v 1.630999 0.534024 0.217403
v 0.005640 0.487395 -0.304163
v 0.005806 0.609243 -0.181880
v 0.005652 0.534024 -0.294855
v 0.005688 0.573554 -0.268348
v 0.005742 0.599968 -0.228676
v 0.006303 0.609243 0.182796
v 0.006469 0.487395 0.305078
v 0.006366 0.599968 0.229591
v 0.006420 0.573554 0.269263
v 0.006456 0.534024 0.295771
v -0.028518 0.609243 0.179407
v -0.052967 0.487395 0.299306
v -0.037875 0.599968 0.225291
v -0.045806 0.573554 0.264190
v -0.051107 0.534024 0.290179
v -0.063436 0.609243 0.168868
v -0.110136 0.487395 0.282050
v -0.081307 0.599968 0.212179
v -0.096458 0.573554 0.248899
v -0.106581 0.534024 0.273434
v -0.094956 0.609243 0.152074
v -0.162840 0.487395 0.253971
v -0.120934 0.599968 0.191070
v -0.142958 0.573554 0.224127
v -0.157672 0.534024 0.246216
v -0.122593 0.609243 0.129456
v -0.209052 0.487395 0.216151
v -0.155679 0.599968 0.162633
v -0.183729 0.573554 0.190759
v -0.202470 0.534024 0.209552
v -0.145288 0.609243 0.101880
v -0.246999 0.487395 0.170041
v -0.184211 0.599968 0.127963
v -0.217208 0.573554 0.150077
v -0.239256 0.534024 0.164852
v -0.162166 0.609243 0.070407
v -0.275220 0.487395 0.117416
v -0.205430 0.599968 0.088396
v -0.242107 0.573554 0.103646
v -0.266614 0.534024 0.113837
v -0.172580 0.609243 0.036241
v -0.292633 0.487395 0.060294
v -0.218522 0.599968 0.045446
v -0.257470 0.573554 0.053249
v -0.283494 0.534024 0.058462
v -0.176129 0.609243 0.000706
v -0.298567 0.487395 0.000872
v -0.222984 0.599968 0.000770
v -0.262706 0.573554 0.000824
v -0.289247 0.534024 0.000861
v -0.172677 0.609243 -0.034839
v -0.292795 0.487395 -0.058565
v -0.218643 0.599968 -0.043918
v -0.257612 0.573554 -0.051616
v -0.283650 0.534024 -0.056757
v -0.162355 0.609243 -0.069032
v -0.275538 0.487395 -0.115733
v -0.205667 0.599968 -0.086903
v -0.242386 0.573554 -0.102054
v -0.266921 0.534024 -0.112178
v -0.145562 0.609243 -0.100554
v -0.247459 0.487395 -0.168436
v -0.184557 0.599968 -0.126531
v -0.217614 0.573554 -0.148553
v -0.239703 0.534024 -0.163268
v -0.122946 0.609243 -0.128188
v -0.209638 0.487395 -0.214648
v -0.156121 0.599968 -0.161274
v -0.184246 0.573554 -0.189324
v -0.203039 0.534024 -0.208068
v -0.095366 0.609243 -0.150885
v -0.163529 0.487395 -0.252595
v -0.121451 0.599968 -0.189809
v -0.143565 0.573554 -0.222806
v -0.158340 0.534024 -0.244853
v -0.063894 0.609243 -0.167763
v -0.110902 0.487395 -0.280817
v -0.081883 0.599968 -0.211026
v -0.097134 0.573554 -0.247703
v -0.107324 0.534024 -0.272211
v -0.029007 0.609243 -0.178398
v -0.053781 0.487395 -0.298229
v -0.038487 0.599968 -0.224256
v -0.046525 0.573554 -0.263133
v -0.051895 0.534024 -0.289108
vt 1.000000 0.900000
vt 1.000000 0.500000
vt 0.000000 0.500000
vt 0.000000 0.900000
vt 0.937500 0.500000
vt 0.937500 0.900000
vt 0.906250 0.900000
vt 0.906250 0.500000
vt 0.875000 0.900000
vt 0.875000 0.500000
vt 0.843750 0.900000
vt 0.843750 0.500000
vt 0.812500 0.900000
vt 0.812500 0.500000
vt 0.781250 0.900000
vt 0.781250 0.500000
vt 0.750000 0.900000
vt 0.750000 0.500000
vt 0.718750 0.900000
vt 0.718750 0.500000
vt 0.687500 0.900000
vt 0.687500 0.500000
vt 0.656250 0.900000
vt 0.656250 0.500000
vt 0.625000 0.900000
vt 0.625000 0.500000
vt 0.593750 0.900000
vt 0.593750 0.500000
vt 0.562500 0.900000
vt 0.562500 0.500000
vt 0.531250 0.900000
vt 0.531250 0.500000
vt 0.500000 0.900000
vt 0.500000 0.500000
vt 0.500000 0.900000
vt 0.500000 0.500000
vt 0.633809 1.000000
vt 0.866191 1.000000
vt 0.100357 1.000000
vt 0.399643 1.000000
vt 0.968750 0.500000
vt 0.468750 0.500000
vt 0.437500 0.500000
vt 0.406250 0.500000
vt 0.375000 0.500000
vt 0.343750 0.500000
vt 0.312500 0.500000
vt 0.281250 0.500000
vt 0.250000 0.500000
vt 0.218750 0.500000
vt 0.187500 0.500000
vt 0.156250 0.500000
vt 0.125000 0.500000
vt 0.093750 0.500000
vt 0.062500 0.500000
vt 0.031250 0.500000
vt 0.031250 0.900000
vt 0.968750 0.900000
vt 0.109154 1.000000
vt 0.124009 1.000000
vt 0.142008 1.000000
vt 0.162028 1.000000
vt 0.183235 1.000000
vt 0.205158 1.000000
vt 0.227487 1.000000
vt 0.250000 1.000000
vt 0.272513 1.000000
vt 0.294843 1.000000
vt 0.316763 1.000000
vt 0.337973 1.000000
vt 0.357990 1.000000
vt 0.375991 1.000000
vt 0.390845 1.000000
vt 0.468750 0.900000
vt 0.437500 0.900000
vt 0.406250 0.900000
vt 0.375000 0.900000
vt 0.343750 0.900000
vt 0.312500 0.900000
vt 0.281250 0.900000
vt 0.250000 0.900000
vt 0.218750 0.900000
vt 0.187500 0.900000
vt 0.156250 0.900000
vt 0.125000 0.900000
vt 0.093750 0.900000
vt 0.062500 0.900000
vt 0.999816 0.938268
vt 0.968790 0.938268
vt 0.998775 1.000000
vt 0.968904 1.000000
vt 0.917398 1.000000
vt 0.906356 1.000000
vt 0.860711 1.000000
vt 0.937500 0.938268
vt 0.937500 1.000000
vt 0.888675 1.000000
vt 0.850397 1.000000
vt 0.906250 0.938268
vt 0.906250 1.000000
vt 0.867990 1.000000
vt 0.837245 1.000000
vt 0.875000 0.938268
vt 0.875000 1.000000
vt 0.845612 1.000000
vt 0.821860 1.000000
vt 0.843751 0.938268
vt 0.843750 1.000000
vt 0.822301 1.000000
vt 0.804978 1.000000
vt 0.812500 0.938268
vt 0.812500 1.000000
vt 0.798449 1.000000
vt 0.787127 1.000000
vt 0.781250 0.938268
vt 0.781250 1.000000
vt 0.774294 1.000000
vt 0.768699 1.000000
vt 0.750000 0.938268
vt 0.750000 1.000000
vt 0.750000 1.000000
vt 0.750001 1.000000
vt 0.718750 0.938268
vt 0.718749 1.000000
vt 0.725705 1.000000
vt 0.731299 1.000000
vt 0.687500 0.938268
vt 0.687501 1.000000
vt 0.701553 1.000000
vt 0.712877 1.000000
vt 0.656250 0.938268
vt 0.656250 1.000000
vt 0.677699 1.000000
vt 0.695022 1.000000
vt 0.625000 0.938268
vt 0.624999 1.000000
vt 0.654387 1.000000
vt 0.678138 1.000000
vt 0.593750 0.938268
vt 0.593750 1.000000
vt 0.632010 1.000000
vt 0.662754 1.000000
vt 0.562500 0.938268
vt 0.562500 1.000000
vt 0.611324 1.000000
vt 0.649603 1.000000
vt 0.531210 0.938268
vt 0.531096 1.000000
vt 0.593646 1.000000
vt 0.639290 1.000000
vt 0.500318 0.938268
vt 0.501225 1.000000
vt 0.582602 1.000000
vt 0.438048 1.000000
vt 0.499081 1.000000
vt 0.499761 0.938268
vt 0.000373 0.938268
vt 0.001434 1.000000
vt 0.061952 1.000000
vt 0.468780 0.938268
vt 0.468865 1.000000
vt 0.423804 1.000000
vt 0.437500 0.938268
vt 0.437500 1.000000
vt 0.402487 1.000000
vt 0.406250 0.938268
vt 0.406250 1.000000
vt 0.378713 1.000000
vt 0.375000 0.938268
vt 0.375000 1.000000
vt 0.353761 1.000000
vt 0.343750 0.938268
vt 0.343749 1.000000
vt 0.328197 1.000000
vt 0.312500 0.938268
vt 0.312500 1.000000
vt 0.302290 1.000000
vt 0.281250 0.938268
vt 0.281250 1.000000
vt 0.276188 1.000000
vt 0.250000 0.938268
vt 0.250000 1.000000
vt 0.250000 1.000000
vt 0.218750 0.938268
vt 0.218750 1.000000
vt 0.223812 1.000000
vt 0.187500 0.938268
vt 0.187500 1.000000
vt 0.197710 1.000000
vt 0.156250 0.938268
vt 0.156250 1.000000
vt 0.171802 1.000000
vt 0.125000 0.938268
vt 0.125000 1.000000
vt 0.146241 1.000000
vt 0.093750 0.938268
vt 0.093750 1.000000
vt 0.121286 1.000000
vt 0.062500 0.938268
vt 0.062500 1.000000
vt 0.097513 1.000000
vt 0.031220 0.938268
vt 0.031135 1.000000
vt 0.076195 1.000000
vn 0.0455 0.0000 -0.9990
vn 0.4702 0.0000 -0.8826
vn 0.6333 0.0000 -0.7739
vn 0.7721 0.0000 -0.6354
vn 0.8813 0.0000 -0.4726
vn 0.9565 0.0000 -0.2916
vn 0.9951 0.0000 -0.0994
vn 0.9953 0.0000 0.0967
vn 0.9573 0.0000 0.2890
vn 0.8826 0.0000 0.4702
vn 0.7739 0.0000 0.6333
vn 0.6354 0.0000 0.7721
vn 0.4726 0.0000 0.8813
vn 0.2916 0.0000 0.9565
vn 0.0994 0.0000 0.9951
vn 0.0482 0.0000 0.9988
vn 0.0000 1.0000 0.0000
vn 0.0000 -1.0000 0.0000
vn -0.0994 0.0000 -0.9951
vn 0.0967 0.0000 -0.9953
vn 0.2890 0.0000 -0.9573
vn -0.2890 0.0000 0.9573
vn -0.4702 0.0000 0.8826
vn -0.6333 0.0000 0.7739
vn -0.7721 0.0000 0.6354
vn -0.8813 0.0000 0.4726
vn -0.9565 0.0000 0.2916
vn -0.9951 0.0000 0.0994
vn -0.9953 0.0000 -0.0967
vn -0.9573 0.0000 -0.2890
vn -0.8826 0.0000 -0.4702
vn -0.7739 0.0000 -0.6333
vn -0.6354 0.0000 -0.7721
vn -0.4726 0.0000 -0.8813
vn -0.2916 0.0000 -0.9565
vn -0.0967 0.0000 0.9953
vn 0.0948 0.1949 -0.9762
vn 0.0804 0.5551 -0.8279
vn 0.0538 0.8311 -0.5534
vn 0.0189 0.9807 -0.1944
vn 0.2834 0.1951 -0.9389
vn 0.2403 0.5556 -0.7960
vn 0.1605 0.8315 -0.5319
vn 0.0564 0.9808 -0.1868
vn 0.4612 0.1951 -0.8656
vn 0.3910 0.5556 -0.7338
vn 0.2612 0.8315 -0.4903
vn 0.0917 0.9808 -0.1722
vn 0.6212 0.1951 -0.7590
vn 0.5266 0.5556 -0.6434
vn 0.3519 0.8315 -0.4299
vn 0.1236 0.9808 -0.1510
vn 0.7573 0.1951 -0.6232
vn 0.6420 0.5556 -0.5284
vn 0.4290 0.8315 -0.3530
vn 0.1506 0.9808 -0.1240
vn 0.8643 0.1951 -0.4635
vn 0.7328 0.5556 -0.3930
vn 0.4896 0.8315 -0.2626
vn 0.1719 0.9808 -0.0922
vn 0.9382 0.1951 -0.2860
vn 0.7953 0.5556 -0.2425
vn 0.5314 0.8315 -0.1620
vn 0.1866 0.9808 -0.0569
vn 0.9759 0.1951 -0.0975
vn 0.8274 0.5556 -0.0826
vn 0.5528 0.8315 -0.0552
vn 0.1941 0.9808 -0.0194
vn 0.9762 0.1951 0.0948
vn 0.8276 0.5556 0.0804
vn 0.5530 0.8315 0.0537
vn 0.1942 0.9808 0.0189
vn 0.9389 0.1951 0.2834
vn 0.7960 0.5556 0.2403
vn 0.5319 0.8315 0.1606
vn 0.1868 0.9808 0.0564
vn 0.8656 0.1951 0.4612
vn 0.7338 0.5556 0.3909
vn 0.4903 0.8315 0.2612
vn 0.1722 0.9808 0.0917
vn 0.7590 0.1951 0.6212
vn 0.6434 0.5556 0.5266
vn 0.4299 0.8315 0.3519
vn 0.1510 0.9808 0.1236
vn 0.6232 0.1951 0.7573
vn 0.5284 0.5556 0.6420
vn 0.3530 0.8315 0.4290
vn 0.1240 0.9808 0.1506
vn 0.4635 0.1951 0.8643
vn 0.3930 0.5556 0.7327
vn 0.2626 0.8315 0.4896
vn 0.0922 0.9808 0.1719
vn 0.2860 0.1951 0.9382
vn 0.2424 0.5556 0.7954
vn 0.1620 0.8315 0.5314
vn 0.0569 0.9808 0.1866
vn 0.0975 0.1949 0.9760
vn 0.0827 0.5551 0.8277
vn 0.0553 0.8312 0.5533
vn 0.0195 0.9807 0.1944
vn 0.0094 0.9809 0.1944
vn 0.0267 0.8321 0.5540
vn 0.0400 0.5565 0.8299
vn 0.0473 0.1955 0.9796
vn 0.0446 0.1956 -0.9797
vn 0.0378 0.5565 -0.8300
vn 0.0252 0.8321 -0.5541
vn 0.0088 0.9809 -0.1944
vn -0.0948 0.1949 0.9762
vn -0.0804 0.5551 0.8279
vn -0.0538 0.8312 0.5534
vn -0.0189 0.9807 0.1944
vn -0.2834 0.1951 0.9389
vn -0.2403 0.5556 0.7960
vn -0.1606 0.8315 0.5319
vn -0.0564 0.9808 0.1868
vn -0.4611 0.1951 0.8656
vn -0.3909 0.5556 0.7338
vn -0.2612 0.8315 0.4903
vn -0.0917 0.9808 0.1722
vn -0.6212 0.1951 0.7590
vn -0.5266 0.5556 0.6434
vn -0.3519 0.8315 0.4299
vn -0.1236 0.9808 0.1510
vn -0.7573 0.1951 0.6232
vn -0.6420 0.5556 0.5283
vn -0.4290 0.8315 0.3530
vn -0.1506 0.9808 0.1240
vn -0.8643 0.1951 0.4635
vn -0.7328 0.5556 0.3930
vn -0.4896 0.8315 0.2626
vn -0.1719 0.9808 0.0922
vn -0.9382 0.1951 0.2860
vn -0.7953 0.5556 0.2424
vn -0.5314 0.8315 0.1620
vn -0.1866 0.9808 0.0569
vn -0.9759 0.1951 0.0975
vn -0.8274 0.5556 0.0826
vn -0.5528 0.8315 0.0552
vn -0.1941 0.9808 0.0194
vn -0.9762 0.1951 -0.0948
vn -0.8276 0.5556 -0.0804
vn -0.5530 0.8315 -0.0537
vn -0.1942 0.9808 -0.0189
vn -0.9389 0.1951 -0.2834
vn -0.7960 0.5556 -0.2403
vn -0.5319 0.8315 -0.1606
vn -0.1868 0.9808 -0.0564
vn -0.8656 0.1951 -0.4612
vn -0.7338 0.5556 -0.3909
vn -0.4903 0.8315 -0.2612
vn -0.1722 0.9808 -0.0917
vn -0.7590 0.1951 -0.6212
vn -0.6434 0.5556 -0.5266
vn -0.4299 0.8315 -0.3519
vn -0.1510 0.9808 -0.1236
vn -0.6232 0.1951 -0.7573
vn -0.5284 0.5556 -0.6420
vn -0.3531 0.8315 -0.4290
vn -0.1240 0.9808 -0.1506
vn -0.4635 0.1951 -0.8643
vn -0.3929 0.5556 -0.7328
vn -0.2625 0.8315 -0.4896
vn -0.0922 0.9808 -0.1719
vn -0.2860 0.1951 -0.9382
vn -0.2425 0.5556 -0.7953
vn -0.1620 0.8315 -0.5314
vn -0.0569 0.9808 -0.1866
vn -0.0975 0.1949 -0.9760
vn -0.0827 0.5551 -0.8277
vn -0.0553 0.8312 -0.5533
vn -0.0194 0.9807 -0.1944
usemtl None
s off
f 35/1/1 1/2/1 18/3/1 120/4/1
f 3/5/2 46/6/2 51/7/2 4/8/2
f 4/8/3 51/7/3 56/9/3 5/10/3
f 5/10/4 56/9/4 61/11/4 6/12/4
f 6/12/5 61/11/5 66/13/5 7/14/5
f 7/14/6 66/13/6 71/15/6 8/16/6
f 8/16/7 71/15/7 76/17/7 9/18/7
f 9/18/8 76/17/8 81/19/8 10/20/8
f 10/20/9 81/19/9 86/21/9 11/22/9
f 11/22/10 86/21/10 91/23/10 12/24/10
f 12/24/11 91/23/11 96/25/11 13/26/11
f 13/26/12 96/25/12 101/27/12 14/28/12
f 14/28/13 101/27/13 106/29/13 15/30/13
f 15/30/14 106/29/14 111/31/14 16/32/14
f 16/32/15 111/31/15 116/33/15 17/34/15
f 17/34/16 116/33/16 126/35/16 19/36/16
f 115/37/17 36/38/17 121/39/17 125/40/17
f 1/2/18 2/41/18 3/5/18 4/8/18 5/10/18 6/12/18 7/14/18 8/16/18 9/18/18 10/20/18 11/22/18 12/24/18 13/26/18 14/28/18 15/30/18 16/32/18 17/34/18
f 18/3/18 19/36/18 20/42/18 21/43/18 22/44/18 23/45/18 24/46/18 25/47/18 26/48/18 27/49/18 28/50/18 29/51/18 30/52/18 31/53/18 32/54/18 33/55/18 34/56/18
f 34/56/19 201/57/19 120/4/19 18/3/19
f 17/34/18 19/36/18 18/3/18 1/2/18
f 1/2/20 35/1/20 41/58/20 2/41/20
f 125/40/17 121/39/17 200/59/17 195/60/17 190/61/17 185/62/17 180/63/17 175/64/17 170/65/17 165/66/17 160/67/17 155/68/17 150/69/17 145/70/17 140/71/17 135/72/17 130/73/17
f 2/41/21 41/58/21 46/6/21 3/5/21
f 20/42/22 131/74/22 136/75/22 21/43/22
f 21/43/23 136/75/23 141/76/23 22/44/23
f 22/44/24 141/76/24 146/77/24 23/45/24
f 23/45/25 146/77/25 151/78/25 24/46/25
f 24/46/26 151/78/26 156/79/26 25/47/26
f 25/47/27 156/79/27 161/80/27 26/48/27
f 26/48/28 161/80/28 166/81/28 27/49/28
f 27/49/29 166/81/29 171/82/29 28/50/29
f 28/50/30 171/82/30 176/83/30 29/51/30
f 29/51/31 176/83/31 181/84/31 30/52/31
f 30/52/32 181/84/32 186/85/32 31/53/32
f 31/53/33 186/85/33 191/86/33 32/54/33
f 32/54/34 191/86/34 196/87/34 33/55/34
f 33/55/35 196/87/35 201/57/35 34/56/35
f 19/36/36 126/35/36 131/74/36 20/42/36
f 41/58/37 35/1/37 37/88/37 44/89/37
f 44/89/38 37/88/38 38/90/38 43/91/38
f 43/91/39 38/90/39 39/92/39 42/93/39
f 42/93/40 39/92/40 36/38/40 40/94/40
f 46/6/41 41/58/41 44/89/41 49/95/41
f 49/95/42 44/89/42 43/91/42 48/96/42
f 48/96/43 43/91/43 42/93/43 47/97/43
f 47/97/44 42/93/44 40/94/44 45/98/44
f 51/7/45 46/6/45 49/95/45 54/99/45
f 54/99/46 49/95/46 48/96/46 53/100/46
f 53/100/47 48/96/47 47/97/47 52/101/47
f 52/101/48 47/97/48 45/98/48 50/102/48
f 56/9/49 51/7/49 54/99/49 59/103/49
f 59/103/50 54/99/50 53/100/50 58/104/50
f 58/104/51 53/100/51 52/101/51 57/105/51
f 57/105/52 52/101/52 50/102/52 55/106/52
f 61/11/53 56/9/53 59/103/53 64/107/53
f 64/107/54 59/103/54 58/104/54 63/108/54
f 63/108/55 58/104/55 57/105/55 62/109/55
f 62/109/56 57/105/56 55/106/56 60/110/56
f 66/13/57 61/11/57 64/107/57 69/111/57
f 69/111/58 64/107/58 63/108/58 68/112/58
f 68/112/59 63/108/59 62/109/59 67/113/59
f 67/113/60 62/109/60 60/110/60 65/114/60
f 71/15/61 66/13/61 69/111/61 74/115/61
f 74/115/62 69/111/62 68/112/62 73/116/62
f 73/116/63 68/112/63 67/113/63 72/117/63
f 72/117/64 67/113/64 65/114/64 70/118/64
f 76/17/65 71/15/65 74/115/65 79/119/65
f 79/119/66 74/115/66 73/116/66 78/120/66
f 78/120/67 73/116/67 72/117/67 77/121/67
f 77/121/68 72/117/68 70/118/68 75/122/68
f 81/19/69 76/17/69 79/119/69 84/123/69
f 84/123/70 79/119/70 78/120/70 83/124/70
f 83/124/71 78/120/71 77/121/71 82/125/71
f 82/125/72 77/121/72 75/122/72 80/126/72
f 86/21/73 81/19/73 84/123/73 89/127/73
f 89/127/74 84/123/74 83/124/74 88/128/74
f 88/128/75 83/124/75 82/125/75 87/129/75
f 87/129/76 82/125/76 80/126/76 85/130/76
f 91/23/77 86/21/77 89/127/77 94/131/77
f 94/131/78 89/127/78 88/128/78 93/132/78
f 93/132/79 88/128/79 87/129/79 92/133/79
f 92/133/80 87/129/80 85/130/80 90/134/80
f 96/25/81 91/23/81 94/131/81 99/135/81
f 99/135/82 94/131/82 93/132/82 98/136/82
f 98/136/83 93/132/83 92/133/83 97/137/83
f 97/137/84 92/133/84 90/134/84 95/138/84
f 101/27/85 96/25/85 99/135/85 104/139/85
f 104/139/86 99/135/86 98/136/86 103/140/86
f 103/140/87 98/136/87 97/137/87 102/141/87
f 102/141/88 97/137/88 95/138/88 100/142/88
f 106/29/89 101/27/89 104/139/89 109/143/89
f 109/143/90 104/139/90 103/140/90 108/144/90
f 108/144/91 103/140/91 102/141/91 107/145/91
f 107/145/92 102/141/92 100/142/92 105/146/92
f 111/31/93 106/29/93 109/143/93 114/147/93
f 114/147/94 109/143/94 108/144/94 113/148/94
f 113/148/95 108/144/95 107/145/95 112/149/95
f 112/149/96 107/145/96 105/146/96 110/150/96
f 116/33/97 111/31/97 114/147/97 119/151/97
f 119/151/98 114/147/98 113/148/98 118/152/98
f 118/152/99 113/148/99 112/149/99 117/153/99
f 117/153/100 112/149/100 110/150/100 115/37/100
f 115/37/101 125/40/101 127/154/101 117/153/101
f 117/153/102 127/154/102 128/155/102 118/152/102
f 118/152/103 128/155/103 129/156/103 119/151/103
f 119/151/104 129/156/104 126/35/104 116/33/104
f 35/1/105 120/4/105 122/157/105 37/88/105
f 37/88/106 122/157/106 123/158/106 38/90/106
f 38/90/107 123/158/107 124/159/107 39/92/107
f 39/92/108 124/159/108 121/39/108 36/38/108
f 131/74/109 126/35/109 129/156/109 134/160/109
f 134/160/110 129/156/110 128/155/110 133/161/110
f 133/161/111 128/155/111 127/154/111 132/162/111
f 132/162/112 127/154/112 125/40/112 130/73/112
f 136/75/113 131/74/113 134/160/113 139/163/113
f 139/163/114 134/160/114 133/161/114 138/164/114
f 138/164/115 133/161/115 132/162/115 137/165/115
f 137/165/116 132/162/116 130/73/116 135/72/116
f 141/76/117 136/75/117 139/163/117 144/166/117
f 144/166/118 139/163/118 138/164/118 143/167/118
f 143/167/119 138/164/119 137/165/119 142/168/119
f 142/168/120 137/165/120 135/72/120 140/71/120
f 146/77/121 141/76/121 144/166/121 149/169/121
f 149/169/122 144/166/122 143/167/122 148/170/122
f 148/170/123 143/167/123 142/168/123 147/171/123
f 147/171/124 142/168/124 140/71/124 145/70/124
f 151/78/125 146/77/125 149/169/125 154/172/125
f 154/172/126 149/169/126 148/170/126 153/173/126
f 153/173/127 148/170/127 147/171/127 152/174/127
f 152/174/128 147/171/128 145/70/128 150/69/128
f 156/79/129 151/78/129 154/172/129 159/175/129
f 159/175/130 154/172/130 153/173/130 158/176/130
f 158/176/131 153/173/131 152/174/131 157/177/131
f 157/177/132 152/174/132 150/69/132 155/68/132
f 161/80/133 156/79/133 159/175/133 164/178/133
f 164/178/134 159/175/134 158/176/134 163/179/134
f 163/179/135 158/176/135 157/177/135 162/180/135
f 162/180/136 157/177/136 155/68/136 160/67/136
f 166/81/137 161/80/137 164/178/137 169/181/137
f 169/181/138 164/178/138 163/179/138 168/182/138
f 168/182/139 163/179/139 162/180/139 167/183/139
f 167/183/140 162/180/140 160/67/140 165/66/140
f 171/82/141 166/81/141 169/181/141 174/184/141
f 174/184/142 169/181/142 168/182/142 173/185/142
f 173/185/143 168/182/143 167/183/143 172/186/143
f 172/186/144 167/183/144 165/66/144 170/65/144
f 176/83/145 171/82/145 174/184/145 179/187/145
f 179/187/146 174/184/146 173/185/146 178/188/146
f 178/188/147 173/185/147 172/186/147 177/189/147
f 177/189/148 172/186/148 170/65/148 175/64/148
f 181/84/149 176/83/149 179/187/149 184/190/149
f 184/190/150 179/187/150 178/188/150 183/191/150
f 183/191/151 178/188/151 177/189/151 182/192/151
f 182/192/152 177/189/152 175/64/152 180/63/152
f 186/85/153 181/84/153 184/190/153 189/193/153
f 189/193/154 184/190/154 183/191/154 188/194/154
f 188/194/155 183/191/155 182/192/155 187/195/155
f 187/195/156 182/192/156 180/63/156 185/62/156
f 191/86/157 186/85/157 189/193/157 194/196/157
f 194/196/158 189/193/158 188/194/158 193/197/158
f 193/197/159 188/194/159 187/195/159 192/198/159
f 192/198/160 187/195/160 185/62/160 190/61/160
f 196/87/161 191/86/161 194/196/161 199/199/161
f 199/199/162 194/196/162 193/197/162 198/200/162
f 198/200/163 193/197/163 192/198/163 197/201/163
f 197/201/164 192/198/164 190/61/164 195/60/164
f 201/57/165 196/87/165 199/199/165 204/202/165
f 204/202/166 199/199/166 198/200/166 203/203/166
f 203/203/167 198/200/167 197/201/167 202/204/167
f 202/204/168 197/201/168 195/60/168 200/59/168
f 120/4/169 201/57/169 204/202/169 122/157/169
f 122/157/170 204/202/170 203/203/170 123/158/170
f 123/158/171 203/203/171 202/204/171 124/159/171
f 124/159/172 202/204/172 200/59/172 121/39/172
f 40/94/17 36/38/17 115/37/17 110/150/17 105/146/17 100/142/17 95/138/17 90/134/17 85/130/17 80/126/17 75/122/17 70/118/17 65/114/17 60/110/17 55/106/17 50/102/17 45/98/17
