# Blender v2.93.3 OBJ File: 'ufo.blend'
# www.blender.org
mtllib tree1.mtl
o TreeT1_Tree_low
v -0.263079 4.065918 0.573089
v 0.239263 3.814003 0.776512
v 0.515683 3.760980 0.460996
v 0.439595 3.818358 -0.026116
v 0.120548 3.848035 -0.082925
v -0.349779 4.040854 0.200764
v 0.765635 3.576288 -0.389260
v 0.735958 3.267434 -0.609451
v 0.493884 3.202948 -0.706022
v 0.185034 3.521995 -0.533365
v 0.359453 2.732625 -0.864544
v -0.012869 2.819322 -0.949660
v -0.365549 3.321664 -0.816853
v -0.302074 3.598083 -0.610874
v -0.911636 3.270130 -0.545149
v -1.112068 3.393126 -0.215484
v -0.950997 3.860070 -0.097954
v -0.667613 3.956029 -0.197487
v -0.874912 3.827007 0.389157
v -0.548898 4.032211 0.661946
v -1.004074 3.213284 0.572677
v -0.869927 3.199267 0.845446
v -0.548707 3.615525 1.060850
v -0.299381 3.869975 1.036720
v -0.609703 3.184635 1.229092
v -0.237381 3.082068 1.314208
v 0.310726 3.315979 1.171681
v 0.187730 3.645664 1.114229
v 0.777670 3.221072 0.781144
v 0.873629 3.521774 0.398901
v 0.958450 3.441856 -0.128928
v 0.983518 3.069531 -0.079840
v 0.731600 2.716851 -0.333309
v 0.678580 2.780326 -0.562081
v 0.744607 2.733961 0.828510
v 0.949808 2.662340 0.454852
v -0.728552 2.827367 1.001372
v -0.370242 2.479380 0.838428
v 0.116867 2.255069 1.044695
v 0.130881 2.527821 1.215188
v 0.533125 1.936300 0.648253
v 0.787571 2.113386 0.489326
v 0.563261 2.170764 0.002214
v 0.233579 1.970332 -0.211183
v 0.138669 2.131403 -0.602899
v 0.439373 2.414787 -0.662515
v 0.102232 1.887166 0.192926
v -0.000332 1.862097 -0.179399
v -0.902988 2.712158 0.925293
v -0.927895 2.353848 0.760859
v -0.603020 2.179412 0.279385
v -0.255036 2.154508 0.357179
v -0.827331 2.212476 -0.207723
v -0.554582 2.078326 -0.502255
v -0.348439 2.207492 -0.809169
v -0.420063 2.533503 -0.876331
v -1.146103 2.533694 -0.027302
v -0.969014 2.783019 -0.465299
v -1.220303 2.845023 0.411211
v -1.195235 2.472697 0.552666
v 0.194634 -0.000000 0.084761
v 0.044616 0.000000 -0.121717
v -0.144933 0.854757 -0.121717
v -0.014293 0.781016 0.084761
v -0.198117 0.000000 -0.042848
v -0.356317 0.974072 -0.042848
v -0.198117 -0.000000 0.212373
v -0.356317 0.974072 0.212373
v 0.044616 -0.000000 0.291242
v -0.144933 0.854757 0.291242
v 0.065477 2.401958 0.084765
v -0.007506 2.348566 0.077094
v -0.125602 2.262180 0.080025
v -0.125602 2.262180 0.089501
v -0.007506 2.348566 0.092432
v 0.072173 1.301433 0.002033
v 0.124517 1.227692 0.084761
v -0.012521 1.420744 0.033633
v -0.012521 1.420744 0.135892
v 0.072173 1.301433 0.167492
v 0.323070 1.662898 0.002033
v 0.410296 1.686751 0.084765
v 0.181935 1.624301 0.033633
v 0.181935 1.624301 0.135892
v 0.323070 1.662898 0.167492
v 0.216583 2.042221 -0.016171
v 0.289571 2.095613 0.084761
v 0.098487 1.955835 0.022382
v 0.098487 1.955835 0.147144
v 0.216583 2.042221 0.185697
vt 0.843944 0.971637
vt 0.895610 0.951393
vt 0.918541 0.932228
vt 0.905385 0.920909
vt 0.876655 0.922556
vt 0.834974 0.953274
vt 0.928367 0.886801
vt 0.922547 0.854375
vt 0.902140 0.847191
vt 0.878898 0.879167
vt 0.889922 0.805633
vt 0.860893 0.811771
vt 0.833489 0.856087
vt 0.838589 0.884711
vt 0.788611 0.858255
vt 0.768893 0.877689
vt 0.781050 0.925496
vt 0.806662 0.930767
vt 0.784745 0.939770
vt 0.815310 0.972832
vt 0.772316 0.881837
vt 0.783484 0.888615
vt 0.815083 0.943268
vt 0.841454 0.971362
vt 0.808784 0.899672
vt 0.849563 0.889813
vt 0.907418 0.910685
vt 0.893991 0.947117
vt 0.948154 0.885616
vt 0.950638 0.904557
vt 0.948402 0.881078
vt 0.950542 0.847811
vt 0.924946 0.811858
vt 0.917880 0.813758
vt 0.944615 0.835515
vt 0.956502 0.820250
vt 0.797954 0.852083
vt 0.835138 0.810623
vt 0.884861 0.790095
vt 0.888171 0.822859
vt 0.919939 0.752778
vt 0.941074 0.768055
vt 0.914430 0.768374
vt 0.884610 0.749251
vt 0.874364 0.759736
vt 0.897598 0.782177
vt 0.876425 0.744860
vt 0.865487 0.740303
vt 0.780799 0.837874
vt 0.780607 0.796901
vt 0.813946 0.772927
vt 0.845430 0.771217
vt 0.796030 0.770797
vt 0.819558 0.756527
vt 0.835722 0.764411
vt 0.829887 0.789994
vt 0.766591 0.802108
vt 0.784412 0.817209
vt 0.754299 0.840221
vt 0.756295 0.805734
vt 0.171216 0.733869
vt 0.155337 0.737385
vt 0.137120 0.818445
vt 0.150965 0.809726
vt 0.132677 0.735729
vt 0.116637 0.829598
vt 0.133580 0.731019
vt 0.116977 0.828201
vt 0.158132 0.729792
vt 0.138898 0.815504
vt 0.159178 0.978198
vt 0.151578 0.972360
vt 0.139414 0.963176
vt 0.139458 0.963308
vt 0.151677 0.972595
vt 0.159024 0.862291
vt 0.164851 0.854711
vt 0.150811 0.874420
vt 0.151449 0.874520
vt 0.160251 0.862164
vt 0.184153 0.899101
vt 0.193877 0.901929
vt 0.170333 0.895295
vt 0.171261 0.895703
vt 0.185992 0.899854
vt 0.173583 0.938381
vt 0.182040 0.945047
vt 0.161965 0.929759
vt 0.162958 0.930888
vt 0.175546 0.940477
vn 0.1138 0.9804 0.1606
vn 0.4345 0.8316 0.3459
vn 0.5373 0.8184 0.2040
vn 0.3640 0.8954 -0.2564
vn 0.2323 0.9007 -0.3670
vn 0.0040 0.9893 -0.1459
vn 0.5931 0.6273 -0.5047
vn 0.6622 0.2543 -0.7048
vn 0.3575 0.3755 -0.8551
vn 0.1732 0.6738 -0.7183
vn 0.3800 -0.0496 -0.9236
vn 0.0360 0.0439 -0.9984
vn -0.2186 0.3479 -0.9117
vn -0.0545 0.6661 -0.7439
vn -0.6541 0.2435 -0.7161
vn -0.9061 0.3015 -0.2969
vn -0.6714 0.6996 -0.2447
vn -0.2402 0.8538 -0.4618
vn -0.7206 0.6480 0.2466
vn -0.4258 0.8357 0.3470
vn -0.8633 0.2817 0.4187
vn -0.7821 0.2326 0.5781
vn -0.5080 0.3708 0.7774
vn -0.1317 0.6756 0.7254
vn -0.4811 0.0074 0.8767
vn -0.0636 -0.0885 0.9940
vn 0.4249 0.2757 0.8622
vn 0.2967 0.5949 0.7470
vn 0.7896 0.2408 0.5643
vn 0.8232 0.5005 0.2681
vn 0.9301 0.3504 -0.1104
vn 0.9833 -0.0999 -0.1524
vn 0.8491 -0.3660 -0.3810
vn 0.7739 -0.2334 -0.5887
vn 0.7195 -0.1323 0.6818
vn 0.9572 -0.2296 0.1761
vn -0.5026 -0.3481 0.7913
vn -0.2589 -0.6988 0.6668
vn 0.0065 -0.6703 0.7421
vn 0.1894 -0.3520 0.9166
vn 0.3385 -0.8480 0.4079
vn 0.7654 -0.6180 0.1796
vn 0.6951 -0.6546 -0.2972
vn 0.4577 -0.8204 -0.3428
vn 0.3326 -0.6831 -0.6501
vn 0.5668 -0.4553 -0.6867
vn -0.0408 -0.9955 0.0861
vn -0.0185 -0.9855 -0.1685
vn -0.5992 -0.2713 0.7532
vn -0.4994 -0.6656 0.5546
vn -0.3277 -0.8967 0.2975
vn -0.3106 -0.8681 0.3873
vn -0.6262 -0.7482 -0.2195
vn -0.4654 -0.8025 -0.3734
vn -0.1850 -0.6118 -0.7691
vn -0.3624 -0.2591 -0.8953
vn -0.8579 -0.4248 -0.2890
vn -0.7823 -0.1405 -0.6069
vn -0.9862 0.0962 0.1351
vn -0.9002 -0.3763 0.2191
vn 0.9704 0.2413 0.0095
vn 0.3723 0.0913 -0.9236
vn 0.0389 0.0219 -0.9990
vn 0.9704 0.2408 0.0177
vn -0.7798 -0.1266 -0.6131
vn -0.8990 -0.1536 -0.4102
vn -0.7824 -0.1372 0.6075
vn -0.9011 -0.1464 0.4081
vn 0.3861 0.1064 0.9163
vn 0.0625 0.0305 0.9976
vn 0.0000 -1.0000 -0.0000
vn -0.5904 0.8071 0.0000
vn 0.9604 -0.2788 -0.0000
vn 0.3795 0.0424 -0.9242
vn 0.3103 -0.0457 -0.9495
vn 0.9239 -0.3827 -0.0000
vn -0.5666 0.5605 -0.6040
vn -0.6008 0.5548 -0.5756
vn -0.5666 0.5605 0.6040
vn -0.6008 0.5548 0.5756
vn 0.3795 0.0424 0.9242
vn 0.3103 -0.0457 0.9495
vn 0.3852 -0.1214 -0.9148
vn 0.9975 -0.0713 0.0000
vn -0.6572 0.1785 -0.7323
vn -0.6572 0.1785 0.7323
vn 0.3852 -0.1214 0.9148
vn 0.2149 0.1642 -0.9627
vn 0.8671 0.4981 -0.0000
vn -0.6799 -0.2554 -0.6874
vn -0.6799 -0.2554 0.6874
vn 0.2149 0.1642 0.9627
vn 0.0684 0.2455 -0.9670
vn 0.6724 0.7402 0.0000
vn -0.7018 -0.3623 -0.6134
vn -0.7018 -0.3623 0.6134
vn 0.0684 0.2455 0.9670
usemtl texture
s 1
f 1/1/1 2/2/2 3/3/3 4/4/4 5/5/5 6/6/6
f 4/4/4 7/7/7 8/8/8 9/9/9 10/10/10 5/5/5
f 9/9/9 11/11/11 12/12/12 13/13/13 14/14/14 10/10/10
f 13/13/13 15/15/15 16/16/16 17/17/17 18/18/18 14/14/14
f 17/17/17 19/19/19 20/20/20 1/1/1 6/6/6 18/18/18
f 19/19/19 21/21/21 22/22/22 23/23/23 24/24/24 20/20/20
f 23/23/23 25/25/25 26/26/26 27/27/27 28/28/28 24/24/24
f 27/27/27 29/29/29 30/30/30 3/3/3 2/2/2 28/28/28
f 7/7/7 31/31/31 32/32/32 33/33/33 34/34/34 8/8/8
f 31/31/31 30/30/30 29/29/29 35/35/35 36/36/36 32/32/32
f 25/25/25 37/37/37 38/38/38 39/39/39 40/40/40 26/26/26
f 39/39/39 41/41/41 42/42/42 36/36/36 35/35/35 40/40/40
f 33/33/33 43/43/43 44/44/44 45/45/45 46/46/46 34/34/34
f 43/43/43 42/42/42 41/41/41 47/47/47 48/48/48 44/44/44
f 37/37/37 49/49/49 50/50/50 51/51/51 52/52/52 38/38/38
f 51/51/51 53/53/53 54/54/54 48/48/48 47/47/47 52/52/52
f 45/45/45 55/55/55 56/56/56 12/12/12 11/11/11 46/46/46
f 55/55/55 54/54/54 53/53/53 57/57/57 58/58/58 56/56/56
f 49/49/49 22/22/22 21/21/21 59/59/59 60/60/60 50/50/50
f 59/59/59 16/16/16 15/15/15 58/58/58 57/57/57 60/60/60
f 5/5/5 10/10/10 14/14/14 18/18/18 6/6/6
f 20/20/20 24/24/24 28/28/28 2/2/2 1/1/1
f 3/3/3 30/30/30 31/31/31 7/7/7 4/4/4
f 27/27/27 26/26/26 40/40/40 35/35/35 29/29/29
f 36/36/36 42/42/42 43/43/43 33/33/33 32/32/32
f 39/39/39 38/38/38 52/52/52 47/47/47 41/41/41
f 48/48/48 54/54/54 55/55/55 45/45/45 44/44/44
f 51/51/51 50/50/50 60/60/60 57/57/57 53/53/53
f 58/58/58 15/15/15 13/13/13 12/12/12 56/56/56
f 59/59/59 21/21/21 19/19/19 17/17/17 16/16/16
f 22/22/22 49/49/49 37/37/37 25/25/25 23/23/23
f 9/9/9 8/8/8 34/34/34 46/46/46 11/11/11
f 61/61/61 62/62/62 63/63/63 64/64/64
f 62/62/62 65/65/65 66/66/66 63/63/63
f 65/65/65 67/67/67 68/68/68 66/66/66
f 67/67/67 69/69/69 70/70/70 68/68/68
f 69/69/69 61/61/61 64/64/64 70/70/70
f 69/69/71 67/67/71 65/65/71 62/62/71 61/61/71
f 71/71/72 72/72/72 73/73/72 74/74/72 75/75/72
f 64/64/73 63/63/74 76/76/75 77/77/76
f 63/63/74 66/66/77 78/78/78 76/76/75
f 66/66/77 68/68/79 79/79/80 78/78/78
f 68/68/79 70/70/81 80/80/82 79/79/80
f 70/70/81 64/64/73 77/77/76 80/80/82
f 77/77/76 76/76/75 81/81/83 82/82/84
f 76/76/75 78/78/78 83/83/85 81/81/83
f 78/78/78 79/79/80 84/84/86 83/83/85
f 79/79/80 80/80/82 85/85/87 84/84/86
f 80/80/82 77/77/76 82/82/84 85/85/87
f 82/82/84 81/81/83 86/86/88 87/87/89
f 81/81/83 83/83/85 88/88/90 86/86/88
f 83/83/85 84/84/86 89/89/91 88/88/90
f 84/84/86 85/85/87 90/90/92 89/89/91
f 85/85/87 82/82/84 87/87/89 90/90/92
f 87/87/89 86/86/88 72/72/93 71/71/94
f 86/86/88 88/88/90 73/73/95 72/72/93
f 88/88/90 89/89/91 74/74/96 73/73/95
f 89/89/91 90/90/92 75/75/97 74/74/96
f 90/90/92 87/87/89 71/71/94 75/75/97
