# Blender v2.93.5 OBJ File: ''
# www.blender.org
mtllib cube.mtl
o cube
v 1.000000 -1.000000 -1.000000
v -1.000000 -1.000000 -1.000000
v -1.000000 1.000000 -1.000000
v -1.000000 1.000000 1.000000
v -1.000000 -1.000000 1.000000
v 0.999999 -1.000001 1.000000
v 1.000000 1.000000 -1.000000
v 1.000000 0.999999 1.000000
v 0.999999 -1.000001 1.000000
v 1.000000 -1.000000 -1.000000
v 0.999999 -1.000001 1.000000
v -1.000000 -1.000000 1.000000
v -1.000000 -1.000000 1.000000
v -1.000000 1.000000 1.000000
v -1.000000 1.000000 -1.000000
v 1.000000 1.000000 -1.000000
v -1.000000 1.000000 -1.000000
v -1.000000 1.000000 1.000000
v 1.000000 1.000000 -1.000000
v 1.000000 0.999999 1.000000
v 1.000000 -1.000000 -1.000000
v 1.000000 1.000000 -1.000000
v 0.999999 -1.000001 1.000000
v -1.000000 -1.000000 -1.000000
v 1.000000 -1.000000 -1.000000
v -1.000000 -1.000000 1.000000
v -1.000000 -1.000000 -1.000000
v 1.000000 0.999999 1.000000
v 1.000000 1.000000 -1.000000
v -1.000000 1.000000 1.000000
vt 1.000000 0.000000
vt 0.000000 0.000000
vt 0.000000 1.000000
vt 0.000000 1.000000
vt 0.000000 0.000000
vt 0.999999 -0.000000
vt 1.000000 0.000000
vt 0.999999 1.000000
vt -0.000000 1.000000
vt 1.000000 0.000000
vt 0.999999 1.000000
vt 0.000000 1.000000
vt 0.000000 1.000000
vt 1.000000 1.000000
vt 1.000000 0.000000
vt 1.000000 0.000000
vt 0.000000 0.000000
vt 0.000000 1.000000
vt 1.000000 1.000000
vt 1.000000 0.999999
vt 0.000000 0.000000
vt 1.000000 0.000000
vt -0.000000 1.000000
vt 0.000000 0.000000
vt 1.000000 0.000000
vt 0.000000 1.000000
vt 0.000000 0.000000
vt 1.000000 1.000000
vt 1.000000 0.000000
vt 0.000000 1.000000
vn 0.0000 0.0000 -1.0000
vn -0.0000 -0.0000 1.0000
vn 1.0000 -0.0000 -0.0000
vn -0.0000 -1.0000 -0.0000
vn -1.0000 0.0000 0.0000
vn 0.0000 1.0000 0.0000
usemtl Default_OBJ
s 1
f 1/1/1 2/2/1 3/3/1
f 4/4/2 5/5/2 6/6/2
f 7/7/3 8/8/3 9/9/3
f 10/10/4 11/11/4 12/12/4
f 13/13/5 14/14/5 15/15/5
f 16/16/6 17/17/6 18/18/6
f 19/19/1 1/1/1 3/3/1
f 20/20/2 4/4/2 6/6/2
f 21/21/3 22/22/3 23/23/3
f 24/24/4 25/25/4 26/26/4
f 27/27/5 13/13/5 15/15/5
f 28/28/6 29/29/6 30/30/6
